<svg width="94" height="86" viewBox="0 0 94 86" fill="none" xmlns="http://www.w3.org/2000/svg">
<mask id="mask0" mask-type="alpha" maskUnits="userSpaceOnUse" x="0" y="0" width="93" height="86">
<path fill-rule="evenodd" clip-rule="evenodd" d="M0 0H93V86H0V0Z" fill="white"/>
</mask>
<g mask="url(#mask0)">
<path fill-rule="evenodd" clip-rule="evenodd" d="M62.2024 45.3263C63.0348 45.8947 63.2511 47.0313 62.6827 47.8637C62.4591 48.1973 57.0324 56 46.5016 56C35.9672 56 30.5442 48.1973 30.3169 47.8637C29.7485 47.0277 29.9649 45.8873 30.8045 45.319C31.1199 45.1027 31.4792 45 31.8312 45C32.4179 45 32.9972 45.2823 33.3492 45.803C33.3969 45.869 37.8886 52.3333 46.5016 52.3333C55.045 52.3333 59.4707 46.067 59.6541 45.7993C60.2297 44.9707 61.3664 44.758 62.2024 45.3263ZM90 66.0773C90 67.1157 89.1587 67.9585 88.1304 67.9585H77.6609C76.2176 67.9585 75.0435 69.1436 75.0435 70.5958L75.0323 83L56.6133 69.1135C55.6411 68.3723 54.4371 67.9585 53.2182 67.9585H5.86957C4.83757 67.9585 4 67.1157 4 66.0773V5.88113C4 4.84651 4.83757 4 5.86957 4H88.1304C89.1587 4 90 4.84651 90 5.88113V66.0773ZM87.42 0H5.58C2.50356 0 0 2.52017 0 5.6087V65.4348C0 68.5308 2.50356 71.0435 5.58 71.0435H52.6864C53.0881 71.0435 53.4899 71.1818 53.8247 71.4361L72.1457 85.2335C72.8116 85.7457 73.6002 86 74.3963 86C74.9543 86 75.5234 85.8729 76.0517 85.6111C77.3276 84.9755 78.12 83.693 78.12 82.2609V71.0435H87.42C90.4964 71.0435 93 68.5308 93 65.4348V5.6087C93 2.52017 90.4964 0 87.42 0Z" fill="#00B67B"/>
</g>
</svg>
