<svg width="90" height="86" viewBox="0 0 90 86" fill="none" xmlns="http://www.w3.org/2000/svg">
<path fill-rule="evenodd" clip-rule="evenodd" d="M72 77C72 75.896 72.784 75 73.75 75H77.25C78.216 75 79 75.896 79 77C79 78.104 78.216 79 77.25 79H73.75C72.784 79 72 78.104 72 77ZM65 83H87V47H65V83ZM86.375 43H64.625C62.624 43 61 44.6017 61 46.5833V82.4167C61 84.3983 62.624 86 64.625 86H86.375C88.376 86 90 84.3983 90 82.4167V46.5833C90 44.6017 88.376 43 86.375 43ZM36 83H47V72H36V83ZM55.9348 82.4167H50.5217V71.6667H52.3261C53.3221 71.6667 54.1304 70.864 54.1304 69.875C54.1304 68.886 53.3221 68.0833 52.3261 68.0833H5.41304C4.41704 68.0833 3.6087 67.2771 3.6087 66.2917V57.3333H49.8722H51.1027H52.3261C53.3221 57.3333 54.1304 56.5307 54.1304 55.5417C54.1304 54.5527 53.3221 53.75 52.3261 53.75H51.027H49.7783H3.6087V5.375C3.6087 4.38958 4.41704 3.58333 5.41304 3.58333H77.587C78.583 3.58333 79.3913 4.38958 79.3913 5.375V34.0417C79.3913 35.0307 80.1997 35.8333 81.1957 35.8333C82.1917 35.8333 83 35.0307 83 34.0417V5.375C83 2.41158 80.5714 0 77.587 0H5.41304C2.42865 0 0 2.41158 0 5.375V66.2917C0 69.2551 2.42865 71.6667 5.41304 71.6667H32.4783V82.4167H27.0652C26.0692 82.4167 25.2609 83.2193 25.2609 84.2083C25.2609 85.1973 26.0692 86 27.0652 86H55.9348C56.9308 86 57.7391 85.1973 57.7391 84.2083C57.7391 83.2193 56.9308 82.4167 55.9348 82.4167Z" fill="#00B67B"/>
</svg>
