<svg width="100" height="94" viewBox="0 0 100 94" fill="none" xmlns="http://www.w3.org/2000/svg">
<rect x="0.669434" y="16.1274" width="60" height="80" rx="5" transform="rotate(-15 0.669434 16.1274)" fill="#3B4160"/>
<rect x="41.375" y="0.598389" width="60" height="80" rx="5" transform="rotate(15 41.375 0.598389)" fill="#E6EAF2"/>
<rect x="20" width="60" height="80" rx="5" fill="#F4F6FA"/>
<path fill-rule="evenodd" clip-rule="evenodd" d="M30.5 33C31.8807 33 33 31.8807 33 30.5C33 29.1193 31.8807 28 30.5 28C29.1193 28 28 29.1193 28 30.5C28 31.8807 29.1193 33 30.5 33ZM72 40H38V43H72V40ZM38 51H72V54H38V51ZM30.5 44C31.8807 44 33 42.8807 33 41.5C33 40.1193 31.8807 39 30.5 39C29.1193 39 28 40.1193 28 41.5C28 42.8807 29.1193 44 30.5 44ZM33 52.5C33 53.8807 31.8807 55 30.5 55C29.1193 55 28 53.8807 28 52.5C28 51.1193 29.1193 50 30.5 50C31.8807 50 33 51.1193 33 52.5ZM72 29H38V32H72V29ZM33 63.5C33 64.8807 31.8807 66 30.5 66C29.1193 66 28 64.8807 28 63.5C28 62.1193 29.1193 61 30.5 61C31.8807 61 33 62.1193 33 63.5ZM48 62H38V65H48V62Z" fill="#E6EAF2"/>
<path d="M36.2336 18.1429V20H28V10H36.0361V11.8571H30.4458V14.0286H35.3829V15.8286H30.4458V18.1429H36.2336Z" fill="#F34664"/>
<path d="M44.7872 20L42.2199 16.5286L39.6981 20H36.8726L40.8071 14.9143L37.0701 10H39.8652L42.311 13.2429L44.7112 10H47.3697L43.663 14.8286L47.6279 20H44.7872Z" fill="#F34664"/>
<path d="M55.3866 17.8571H50.4494L49.5076 20H46.9859L51.7255 10H54.1561L58.9109 20H56.3284L55.3866 17.8571ZM54.6118 16.1L52.9256 12.2714L51.2394 16.1H54.6118Z" fill="#F34664"/>
<path d="M69.6909 20L69.6758 14L66.5464 18.9429H65.4374L62.3232 14.1286V20H60.0142V10H62.0498L66.0299 16.2143L69.9492 10H71.9696L72 20H69.6909Z" fill="#F34664"/>
<mask id="mask0" mask-type="alpha" maskUnits="userSpaceOnUse" x="48" y="22" width="52" height="52">
<path d="M92.9746 23.2125C93.36 22.8271 93.9849 22.8271 94.3704 23.2125L98.9167 27.7588C99.3021 28.1442 99.3021 28.7691 98.9167 29.1546L58.7447 69.3266C58.6547 69.4166 58.5481 69.4883 58.4309 69.5378L48.3198 73.8093L52.5913 63.6983C52.6409 63.5811 52.7126 63.4745 52.8026 63.3845L92.9746 23.2125Z" fill="#3B4160"/>
</mask>
<g mask="url(#mask0)">
<path d="M92.9746 23.2125C93.36 22.8271 93.9849 22.8271 94.3704 23.2125L98.9167 27.7588C99.3021 28.1442 99.3021 28.7691 98.9167 29.1546L58.7447 69.3266C58.6547 69.4166 58.5481 69.4883 58.4309 69.5378L48.3198 73.8093L52.5913 63.6983C52.6409 63.5811 52.7126 63.4745 52.8026 63.3845L92.9746 23.2125Z" fill="#3B4160"/>
<path d="M52.6725 63.5146L58.6145 69.4567C58.6105 69.4607 58.6057 69.464 58.6004 69.4662L52.7982 71.9174C51.1659 72.607 49.5222 70.9632 50.2118 69.331L52.663 63.5288C52.6652 63.5235 52.6684 63.5187 52.6725 63.5146Z" fill="#7F8599"/>
</g>
</svg>
