<svg width="129" height="115" viewBox="0 0 129 115" fill="none" xmlns="http://www.w3.org/2000/svg">
<rect x="57.7055" y="11.5984" width="60" height="80" rx="5" transform="rotate(15 57.7055 11.5984)" fill="#DADDE5"/>
<path fill-rule="evenodd" clip-rule="evenodd" d="M62.5859 24.2942L105.087 35.6822L104.31 38.58L61.8095 27.192L62.5859 24.2942ZM102.24 46.3074L59.7389 34.9194L58.9625 37.8172L101.463 49.2052L102.24 46.3074ZM56.8919 45.5446L99.3926 56.9326L98.6162 59.8304L56.1155 48.4424L56.8919 45.5446ZM54.0449 56.1697L96.5457 67.5578L95.7692 70.4556L53.2685 59.0675L54.0449 56.1697ZM93.6986 78.183L51.1979 66.7949L50.4215 69.6927L92.9222 81.0808L93.6986 78.183Z" fill="#F4F6FA"/>
<rect x="13" y="27.1274" width="60" height="80" rx="5" transform="rotate(-15 13 27.1274)" fill="#434A6E"/>
<path fill-rule="evenodd" clip-rule="evenodd" d="M67.0411 24.0353L23.5744 35.6821L24.3509 38.5799L67.8176 26.933L67.0411 24.0353ZM69.8881 34.6605L26.4215 46.3073L27.1979 49.2051L70.6646 37.5582L69.8881 34.6605ZM29.2685 56.9325L72.7351 45.2856L73.5116 48.1834L30.0449 59.8303L29.2685 56.9325ZM32.1155 67.5577L75.5821 55.9108L76.3586 58.8086L32.8919 70.4555L32.1155 67.5577ZM34.9625 78.1829L47.7468 74.7573L48.5232 77.6551L35.7389 81.0806L34.9625 78.1829Z" fill="#5866AD"/>
<rect x="34" y="11" width="60" height="80" rx="5" fill="white"/>
<path d="M50.2336 29.1429V31H42V21H50.0361V22.8571H44.4458V25.0286H49.3829V26.8286H44.4458V29.1429H50.2336Z" fill="#F34664"/>
<path d="M58.7872 31L56.2199 27.5286L53.6981 31H50.8726L54.8071 25.9143L51.0701 21H53.8652L56.311 24.2429L58.7112 21H61.3697L57.663 25.8286L61.6279 31H58.7872Z" fill="#F34664"/>
<path d="M69.3866 28.8571H64.4494L63.5076 31H60.9859L65.7255 21H68.1561L72.9109 31H70.3284L69.3866 28.8571ZM68.6118 27.1L66.9256 23.2714L65.2394 27.1H68.6118Z" fill="#F34664"/>
<path d="M83.6909 31L83.6758 25L80.5464 29.9429H79.4374L76.3232 25.1286V31H74.0142V21H76.0498L80.0299 27.2143L83.9492 21H85.9696L86 31H83.6909Z" fill="#F34664"/>
<path fill-rule="evenodd" clip-rule="evenodd" d="M44.5 44C45.8807 44 47 42.8807 47 41.5C47 40.1193 45.8807 39 44.5 39C43.1193 39 42 40.1193 42 41.5C42 42.8807 43.1193 44 44.5 44ZM86 51H52V54H86V51ZM52 62H86V65H52V62ZM44.5 55C45.8807 55 47 53.8807 47 52.5C47 51.1193 45.8807 50 44.5 50C43.1193 50 42 51.1193 42 52.5C42 53.8807 43.1193 55 44.5 55ZM47 63.5C47 64.8807 45.8807 66 44.5 66C43.1193 66 42 64.8807 42 63.5C42 62.1193 43.1193 61 44.5 61C45.8807 61 47 62.1193 47 63.5ZM86 40H52V43H86V40ZM47 74.5C47 75.8807 45.8807 77 44.5 77C43.1193 77 42 75.8807 42 74.5C42 73.1193 43.1193 72 44.5 72C45.8807 72 47 73.1193 47 74.5ZM62 73H52V76H62V73Z" fill="#DADDE5"/>
<mask id="mask0" mask-type="alpha" maskUnits="userSpaceOnUse" x="65" y="33" width="52" height="52">
<path d="M110.305 34.2125C110.691 33.8271 111.315 33.8271 111.701 34.2125L116.247 38.7588C116.633 39.1442 116.633 39.7691 116.247 40.1546L76.0752 80.3266C75.9852 80.4166 75.8786 80.4883 75.7614 80.5378L65.6504 84.8093L69.9219 74.6983C69.9714 74.5811 70.0432 74.4745 70.1332 74.3845L110.305 34.2125Z" fill="#434A6E"/>
</mask>
<g mask="url(#mask0)">
<path d="M110.305 34.2125C110.691 33.8271 111.315 33.8271 111.701 34.2125L116.247 38.7588C116.633 39.1442 116.633 39.7691 116.247 40.1546L76.0752 80.3266C75.9852 80.4166 75.8786 80.4883 75.7614 80.5378L65.6504 84.8093L69.9219 74.6983C69.9714 74.5811 70.0432 74.4745 70.1332 74.3845L110.305 34.2125Z" fill="#434A6E"/>
<path d="M70.003 74.5146L75.9451 80.4567C75.941 80.4607 75.9362 80.464 75.9309 80.4662L70.1287 82.9174C68.4965 83.607 66.8527 81.9632 67.5423 80.331L69.9935 74.5288C69.9957 74.5235 69.999 74.5187 70.003 74.5146Z" fill="#5866AD"/>
</g>
</svg>
