<svg width="104" height="94" viewBox="0 0 104 94" fill="none" xmlns="http://www.w3.org/2000/svg">
  <rect x="44.706" y=".598" width="60" height="80" rx="5" transform="rotate(15 44.706 .598)" fill="#DADDE5"/>
  <path fill-rule="evenodd" clip-rule="evenodd" d="M49.586 13.294l42.5 11.388-.776 2.898-42.5-11.388.776-2.898zM89.24 35.307L46.739 23.92l-.776 2.898 42.5 11.388.777-2.898zm-45.348-.763l42.5 11.389-.776 2.897-42.5-11.388.776-2.898zM41.045 45.17l42.5 11.388-.776 2.898-42.5-11.389.776-2.897zm39.654 22.013L38.198 55.795l-.777 2.898L79.922 70.08l.777-2.898z" fill="#F4F6FA"/>
  <rect y="16.128" width="60" height="80" rx="5" transform="rotate(-15 0 16.128)" fill="#434A6E"/>
  <path fill-rule="evenodd" clip-rule="evenodd" d="M54.041 13.035L10.574 24.682l.777 2.898 43.467-11.647-.777-2.898zm2.847 10.625L13.422 35.307l.776 2.898 43.467-11.647-.777-2.898zm-40.62 22.273l43.467-11.647.777 2.898L17.045 48.83l-.777-2.897zm2.848 10.625L62.582 44.91l.777 2.898-43.467 11.647-.776-2.898zm2.846 10.625l12.785-3.426.776 2.898-12.784 3.426-.777-2.898z" fill="#4769AD"/>
  <path d="M21 0h55a5 5 0 0 1 5 5v70a5 5 0 0 1-5 5H21V0z" fill="#fff"/>
  <rect x="37" y="13" width="35" height="9" rx="1" fill="#3AC2C8"/>
  <rect x="42" y="27" width="25" height="4" rx="1" fill="#F34664"/>
  <path fill-rule="evenodd" clip-rule="evenodd" d="M49 56.5a2.5 2.5 0 1 1-5 0 2.5 2.5 0 0 1 5 0zm8 0a2.5 2.5 0 1 1-5 0 2.5 2.5 0 0 1 5 0zm5.5 2.5a2.5 2.5 0 1 0 0-5 2.5 2.5 0 0 0 0 5z" fill="#E6EAF2"/>
  <path d="M97.39 22.698a.987.987 0 0 1 1.395 0l4.517 4.517a.986.986 0 0 1 0 1.396L63.331 68.582a.986.986 0 0 1-.314.211l-10.06 4.25 4.25-10.06a.986.986 0 0 1 .211-.314l39.971-39.971z" fill="#434A6E"/>
  <path d="M57.288 62.8l5.913 5.912a.047.047 0 0 1-.014.01l-5.752 2.43c-1.632.69-3.276-.955-2.587-2.587l2.43-5.752a.044.044 0 0 1 .01-.014z" fill="#4769AD"/>
  <path fill="#E6EAF2" d="M21 0h6v80h-6z"/>
  <path fill="#B4BBD4" d="M27 0h2v80h-2z"/>
</svg>
