<?xml version="1.0" encoding="UTF-8"?>
<svg width="22px" height="26px" viewBox="0 0 22 26" version="1.1" xmlns="http://www.w3.org/2000/svg" xmlns:xlink="http://www.w3.org/1999/xlink">
    <!-- Generator: Sketch 50.2 (55047) - http://www.bohemiancoding.com/sketch -->
    <title>ico-paypal</title>
    <desc>Created with Sketch.</desc>
    <defs></defs>
    <g id="Page-1" stroke="none" stroke-width="1" fill="none" fill-rule="evenodd">
        <g id="ico-paypal" fill-rule="nonzero">
            <path d="M8.15732,6.53249 C8.20908,6.19903 8.4229,5.92667 8.71053,5.78921 C8.84205,5.72642 8.98714,5.69164 9.14072,5.69164 L15.3788,5.69164 C16.1178,5.69164 16.8076,5.74 17.4372,5.84182 C17.6171,5.87067 17.7919,5.90376 17.9624,5.94109 C18.1321,5.97927 18.2976,6.0217 18.4579,6.06836 C18.5377,6.09212 18.6166,6.11673 18.6938,6.14133 C19.0035,6.244 19.2911,6.36533 19.5567,6.50533 C19.869,4.51394 19.5542,3.15806 18.4774,1.9303 C17.2904,0.578667 15.148,0 12.4065,0 L4.44775,0 C3.88775,0 3.41005,0.407273 3.32351,0.961333 L0.00847536,21.9741 C-0.056858,22.3898 0.263869,22.7648 0.683021,22.7648 L5.5966,22.7648 L6.83029,14.9376 L8.15732,6.53249 Z" id="Shape" fill="#253B80"></path>
            <path d="M19.3051939,6 C19.2813939,6.15188 19.2542939,6.30716 19.2236939,6.46667 C18.1741939,11.85541 14.5833939,13.71701 9.99729386,13.71701 L7.66226386,13.71701 C7.10141386,13.71701 6.62881386,14.12421 6.54141386,14.67741 L5.34590386,22.25951 L5.00735386,24.40871 C4.95050386,24.77191 5.23050386,25.09941 5.59705386,25.09941 L9.73851386,25.09941 C10.2288939,25.09941 10.6454939,24.74301 10.7227939,24.25941 L10.7634939,24.04901 L11.5431939,19.10061 L11.5932939,18.82911 C11.6696939,18.34381 12.0870939,17.98741 12.5774939,17.98741 L13.1968939,17.98741 C17.2093939,17.98741 20.3504939,16.35831 21.2685939,11.64411 C21.6520939,9.67481 21.4534939,8.03043 20.4387939,6.87394 C20.1315939,6.52522 19.7505939,6.23588 19.3051939,6 Z" id="Shape" fill="#179BD7"></path>
            <path d="M18.4472679,5.4566687 C18.2789775,5.40478624 18.1052279,5.35762846 17.927069,5.31518423 C17.7480702,5.27368494 17.564557,5.23688808 17.3756896,5.20482702 C16.7147062,5.091635 15.9905221,5.03786268 15.2146855,5.03786268 L8.66567986,5.03786268 C8.50444443,5.03786268 8.35122983,5.07653828 8.21404639,5.14634114 C7.91207903,5.30008752 7.68760084,5.60287783 7.63326079,5.97357002 L6.24008295,15.3174144 L6.19999981,15.5900002 C6.2917459,14.9750146 6.78791386,14.5222243 7.37672029,14.5222243 L9.82813293,14.5222243 C14.6428341,14.5222243 18.412623,12.4518176 19.5144369,6.4621789 C19.5474021,6.28484251 19.5750131,6.1122308 19.5999994,5.94338771 C19.3211602,5.78680652 19.0192243,5.65287042 18.6940869,5.53873347 C18.6138786,5.5104299 18.5310457,5.48308239 18.4472679,5.4566687 Z" id="Shape" fill="#222D65"></path>
        </g>
    </g>
</svg>