<svg width="104" height="94" viewBox="0 0 104 94" fill="none" xmlns="http://www.w3.org/2000/svg">
<rect x="44.7056" y="0.598389" width="60" height="80" rx="5" transform="rotate(15 44.7056 0.598389)" fill="#DADDE5"/>
<path fill-rule="evenodd" clip-rule="evenodd" d="M49.5859 13.2942L92.0867 24.6822L91.3102 27.58L48.8095 16.192L49.5859 13.2942ZM89.2397 35.3074L46.7389 23.9194L45.9625 26.8172L88.4632 38.2052L89.2397 35.3074ZM43.8919 34.5446L86.3926 45.9326L85.6162 48.8304L43.1155 37.4424L43.8919 34.5446ZM41.0449 45.1697L83.5457 56.5578L82.7692 59.4556L40.2685 48.0675L41.0449 45.1697ZM80.6986 67.183L38.1979 55.7949L37.4215 58.6927L79.9222 70.0808L80.6986 67.183Z" fill="#F4F6FA"/>
<rect y="16.1274" width="60" height="80" rx="5" transform="rotate(-15 0 16.1274)" fill="#434A6E"/>
<path fill-rule="evenodd" clip-rule="evenodd" d="M54.0411 13.0353L10.5745 24.6821L11.3509 27.5799L54.8176 15.933L54.0411 13.0353ZM56.8881 23.6605L13.4215 35.3073L14.1979 38.2051L57.6646 26.5582L56.8881 23.6605ZM16.2685 45.9325L59.7352 34.2856L60.5116 37.1834L17.045 48.8303L16.2685 45.9325ZM19.1155 56.5577L62.5822 44.9108L63.3586 47.8086L19.892 59.4555L19.1155 56.5577ZM21.9625 67.1829L34.7468 63.7573L35.5233 66.6551L22.739 70.0806L21.9625 67.1829Z" fill="#5866AD"/>
<rect x="21" width="60" height="80" rx="5" fill="#F4F6FA"/>
<path d="M37.2336 18.1429V20H29V10H37.0361V11.8571H31.4458V14.0286H36.3829V15.8286H31.4458V18.1429H37.2336Z" fill="#F34664"/>
<path d="M45.7872 20L43.2199 16.5286L40.6981 20H37.8726L41.8071 14.9143L38.0701 10H40.8652L43.311 13.2429L45.7112 10H48.3697L44.663 14.8286L48.6279 20H45.7872Z" fill="#F34664"/>
<path d="M56.3866 17.8571H51.4494L50.5076 20H47.9859L52.7255 10H55.1561L59.9109 20H57.3284L56.3866 17.8571ZM55.6118 16.1L53.9256 12.2714L52.2394 16.1H55.6118Z" fill="#F34664"/>
<path d="M70.6909 20L70.6758 14L67.5464 18.9429H66.4374L63.3232 14.1286V20H61.0142V10H63.0498L67.0299 16.2143L70.9492 10H72.9696L73 20H70.6909Z" fill="#F34664"/>
<path fill-rule="evenodd" clip-rule="evenodd" d="M31.5 33C32.8807 33 34 31.8807 34 30.5C34 29.1193 32.8807 28 31.5 28C30.1193 28 29 29.1193 29 30.5C29 31.8807 30.1193 33 31.5 33ZM73 40H39V43H73V40ZM39 51H73V54H39V51ZM31.5 44C32.8807 44 34 42.8807 34 41.5C34 40.1193 32.8807 39 31.5 39C30.1193 39 29 40.1193 29 41.5C29 42.8807 30.1193 44 31.5 44ZM34 52.5C34 53.8807 32.8807 55 31.5 55C30.1193 55 29 53.8807 29 52.5C29 51.1193 30.1193 50 31.5 50C32.8807 50 34 51.1193 34 52.5ZM73 29H39V32H73V29ZM34 63.5C34 64.8807 32.8807 66 31.5 66C30.1193 66 29 64.8807 29 63.5C29 62.1193 30.1193 61 31.5 61C32.8807 61 34 62.1193 34 63.5ZM49 62H39V65H49V62Z" fill="#DADDE5"/>
<mask id="mask0" mask-type="alpha" maskUnits="userSpaceOnUse" x="49" y="22" width="55" height="55">
<path d="M97.3053 23.2125C97.6907 22.8271 98.3156 22.8271 98.701 23.2125L103.247 27.7588C103.633 28.1442 103.633 28.7691 103.247 29.1546L63.0754 69.3266C62.9854 69.4166 62.8788 69.4883 62.7616 69.5378L52.6505 73.8093L56.922 63.6983C56.9716 63.5811 57.0433 63.4745 57.1333 63.3845L97.3053 23.2125Z" fill="#434A6E"/>
</mask>
<g mask="url(#mask0)">
<path d="M97.3053 23.2125C97.6907 22.8271 98.3156 22.8271 98.701 23.2125L103.247 27.7588C103.633 28.1442 103.633 28.7691 103.247 29.1546L63.0754 69.3266C62.9854 69.4166 62.8788 69.4883 62.7616 69.5378L52.6505 73.8093L56.922 63.6983C56.9716 63.5811 57.0433 63.4745 57.1333 63.3845L97.3053 23.2125Z" fill="#434A6E"/>
<path d="M57.0032 63.5146L62.9452 69.4567C62.9412 69.4607 62.9364 69.464 62.9311 69.4662L57.1289 71.9174C55.4966 72.607 53.8529 70.9632 54.5425 69.331L56.9937 63.5288C56.9959 63.5235 56.9991 63.5187 57.0032 63.5146Z" fill="#5866AD"/>
</g>
</svg>
