<svg width="129" height="115" viewBox="0 0 129 115" fill="none" xmlns="http://www.w3.org/2000/svg">
<rect x="13" y="27.1299" width="60" height="80" rx="5" transform="rotate(-15 13 27.1299)" fill="#434A6E"/>
<path fill-rule="evenodd" clip-rule="evenodd" d="M66.7218 24.1232L23.2551 35.77L24.0316 38.6678L67.4983 27.0209L66.7218 24.1232ZM69.5688 34.7483L26.1021 46.3952L26.8786 49.293L70.3453 37.6461L69.5688 34.7483ZM28.9492 57.0204L72.4158 45.3735L73.1923 48.2713L29.7256 59.9182L28.9492 57.0204ZM31.7962 67.6456L75.2628 55.9987L76.0393 58.8965L32.5726 70.5433L31.7962 67.6456ZM34.6432 78.2707L47.4275 74.8452L48.2039 77.743L35.4196 81.1685L34.6432 78.2707Z" fill="#5866AD"/>
<rect x="57.71" y="11.6001" width="60" height="80" rx="5" transform="rotate(15 57.71 11.6001)" fill="#DADDE5"/>
<path fill-rule="evenodd" clip-rule="evenodd" d="M62.271 24.2102L104.768 35.5973L103.992 38.4951L61.4945 27.108L62.271 24.2102ZM101.921 46.2225L59.424 34.8354L58.6475 37.7332L101.145 49.1203L101.921 46.2225ZM56.5786 45.461L99.0767 56.8449L98.3004 59.7428L55.8024 48.3588L56.5786 45.461ZM53.7325 56.0864L96.2305 67.4703L95.4543 70.3682L52.9563 58.9842L53.7325 56.0864ZM93.3843 78.0957L50.8863 66.7118L50.1101 69.6096L92.6081 80.9936L93.3843 78.0957Z" fill="#F4F6FA"/>
<rect x="34" y="11" width="60" height="80" rx="5" fill="#F4F6FA"/>
<path fill-rule="evenodd" clip-rule="evenodd" d="M47 52.5C47 53.8807 45.8807 55 44.5 55C43.1193 55 42 53.8807 42 52.5C42 51.1193 43.1193 50 44.5 50C45.8807 50 47 51.1193 47 52.5ZM82 51H52V54H82V51ZM86 62H52V65H86V62ZM44.5 66C45.8807 66 47 64.8807 47 63.5C47 62.1193 45.8807 61 44.5 61C43.1193 61 42 62.1193 42 63.5C42 64.8807 43.1193 66 44.5 66ZM47 74.5C47 75.8807 45.8807 77 44.5 77C43.1193 77 42 75.8807 42 74.5C42 73.1193 43.1193 72 44.5 72C45.8807 72 47 73.1193 47 74.5ZM62 73H52V76H62V73Z" fill="#DADDE5"/>
<rect x="42" y="18" width="40" height="3" fill="#DADDE5"/>
<path d="M59.1 26H43.9C42.855 26 42 26.855 42 27.9V45L45.8 41.2H59.1C60.145 41.2 61 40.345 61 39.3V27.9C61 26.855 60.145 26 59.1 26Z" fill="#3AC2C8"/>
<path d="M55.5 29.5L57 31L50.01 38L45.5 33.5L47 32L50.01 35L55.5 29.5Z" fill="white"/>
<path fill-rule="evenodd" clip-rule="evenodd" d="M70 33.5C70 34.8807 68.8807 36 67.5 36C66.1193 36 65 34.8807 65 33.5C65 32.1193 66.1193 31 67.5 31C68.8807 31 70 32.1193 70 33.5ZM78 33.5C78 34.8807 76.8807 36 75.5 36C74.1193 36 73 34.8807 73 33.5C73 32.1193 74.1193 31 75.5 31C76.8807 31 78 32.1193 78 33.5ZM83.5 36C84.8807 36 86 34.8807 86 33.5C86 32.1193 84.8807 31 83.5 31C82.1193 31 81 32.1193 81 33.5C81 34.8807 82.1193 36 83.5 36Z" fill="#3AC2C8"/>
<mask id="mask0" mask-type="alpha" maskUnits="userSpaceOnUse" x="65" y="33" width="52" height="52">
<path d="M110.305 34.2125C110.691 33.8271 111.316 33.8271 111.701 34.2125L116.247 38.7588C116.633 39.1442 116.633 39.7691 116.247 40.1546L76.0754 80.3266C75.9854 80.4166 75.8788 80.4883 75.7616 80.5378L65.6505 84.8093L69.922 74.6983C69.9716 74.5811 70.0433 74.4745 70.1333 74.3845L110.305 34.2125Z" fill="#434A6E"/>
</mask>
<g mask="url(#mask0)">
<path d="M110.305 34.2125C110.691 33.8271 111.316 33.8271 111.701 34.2125L116.247 38.7588C116.633 39.1442 116.633 39.7691 116.247 40.1546L76.0754 80.3266C75.9854 80.4166 75.8788 80.4883 75.7616 80.5378L65.6505 84.8093L69.922 74.6983C69.9716 74.5811 70.0433 74.4745 70.1333 74.3845L110.305 34.2125Z" fill="#434A6E"/>
<path d="M69.4266 75.8711C69.6992 75.226 70.5384 75.0621 71.0336 75.5574L74.9026 79.4263C75.3978 79.9216 75.234 80.7608 74.5888 81.0333L65.6506 84.8093L69.4266 75.8711Z" fill="#434A6E"/>
<path d="M70.0032 74.5146L75.9452 80.4567C75.9412 80.4607 75.9364 80.464 75.9311 80.4662L70.1289 82.9174C68.4966 83.607 66.8529 81.9632 67.5425 80.331L69.9937 74.5288C69.9959 74.5235 69.9991 74.5187 70.0032 74.5146Z" fill="#05A4AF"/>
</g>
</svg>
