<?xml version="1.0" encoding="UTF-8"?>
<svg width="740px" height="149px" viewBox="0 0 740 149" version="1.1" xmlns="http://www.w3.org/2000/svg" xmlns:xlink="http://www.w3.org/1999/xlink">
    <!-- Generator: Sketch 42 (36781) - http://www.bohemiancoding.com/sketch -->
    <title>LearnSignal Logo - 2</title>
    <desc>Created with Sketch.</desc>
    <defs></defs>
    <g id="Page-1" stroke="none" stroke-width="1" fill="none" fill-rule="evenodd">
        <g id="LearnSignal-Logo---2" transform="translate(0.000000, -84.000000)">
            <path d="M73.36,160.996 C73.904,162.857 73.743,163.002 71.76,163.056 C66.155,163.201 60.558,163.37 54.953,163.401 C46.048,163.446 37.142,163.814 28.23,163.669 C22.901,163.577 20.55,161.555 19.861,156.241 C19.746,155.338 19.746,154.411 19.738,153.492 C19.616,140.085 19.493,126.67 19.416,113.262 C19.416,112.045 19.102,111.593 17.877,111.754 C17.112,111.854 16.315,111.746 15.542,111.8 C14.692,111.861 14.264,111.693 14.424,110.674 C14.784,108.316 15.106,105.95 15.871,103.683 C16.722,101.172 17.916,100.33 20.588,100.33 C25.55,100.338 30.512,100.36 35.474,100.399 C37.434,100.406 38.008,100.873 38.284,102.826 C38.444,103.959 38.436,105.115 38.444,106.264 C38.452,112.42 38.444,118.576 38.444,124.733 L38.138,124.733 C38.138,131.525 38.184,138.324 38.1,145.123 C38.077,146.494 38.506,146.808 39.761,146.808 C47.656,146.808 55.558,146.884 63.46,146.884 C64.448,146.884 65.244,147.076 65.918,147.811 C69.409,151.639 71.929,156.019 73.36,160.996" id="Fill-1" fill="#ECEBDC"></path>
            <path d="M82.503,133.232 C85.183,137.489 85.979,142.053 84.77,146.945 C83.291,152.941 79.853,157.834 75.925,162.758 C75.665,161.571 75.489,160.606 75.236,159.656 C73.72,153.89 70.328,149.266 66.278,145.039 C62.518,141.126 58.307,137.704 54.294,134.059 C51.576,131.586 48.95,129.028 46.967,125.889 C44.18,121.478 44.095,116.999 46.63,112.474 C49.332,107.642 53.414,104.082 57.648,100.674 C57.955,100.437 58.291,100.353 58.674,100.353 C64.823,100.36 70.971,100.36 77.472,100.36 C75.259,103.209 73.246,105.812 71.232,108.408 C69.463,110.697 67.732,113.017 65.918,115.269 C65.305,116.019 65.389,116.448 66.079,117.052 C69.478,120.001 72.855,122.979 76.201,125.981 C78.605,128.132 80.78,130.491 82.503,133.232" id="Fill-2" fill="#ECEBDC"></path>
            <path d="M49.279,84.173 C76.079,84.257 97.564,105.965 97.449,132.826 C97.334,159.396 75.55,180.943 48.843,180.736 C21.66,180.529 0.603,158.148 0.902,131.693 C1.186,105.659 22.977,84.089 49.279,84.173 Z M73.36,160.996 C71.929,156.019 69.409,151.639 65.918,147.811 C65.244,147.076 64.448,146.884 63.46,146.884 C55.558,146.884 47.656,146.808 39.761,146.808 C38.506,146.808 38.077,146.494 38.1,145.123 C38.184,138.324 38.138,131.525 38.138,124.733 L38.444,124.733 C38.444,118.576 38.452,112.42 38.444,106.264 C38.436,105.115 38.444,103.959 38.284,102.826 C38.008,100.873 37.434,100.406 35.474,100.399 C30.512,100.36 25.55,100.338 20.588,100.33 C17.916,100.33 16.722,101.172 15.871,103.683 C15.106,105.95 14.784,108.316 14.424,110.674 C14.264,111.693 14.692,111.861 15.542,111.8 C16.315,111.746 17.112,111.854 17.877,111.754 C19.102,111.593 19.416,112.045 19.416,113.262 C19.493,126.67 19.616,140.085 19.738,153.492 C19.746,154.411 19.746,155.338 19.861,156.241 C20.55,161.555 22.901,163.577 28.23,163.669 C37.142,163.814 46.048,163.446 54.953,163.401 C60.558,163.37 66.155,163.201 71.76,163.056 C73.743,163.002 73.904,162.857 73.36,160.996 Z M66.278,145.039 C70.328,149.266 73.72,153.89 75.236,159.656 C75.489,160.606 75.665,161.571 75.925,162.758 C79.853,157.834 83.291,152.941 84.77,146.945 C85.979,142.053 85.183,137.489 82.503,133.232 C80.78,130.491 78.605,128.132 76.201,125.981 C72.855,122.979 69.478,120.001 66.079,117.052 C65.389,116.448 65.305,116.019 65.918,115.269 C67.732,113.017 69.463,110.697 71.232,108.408 C73.246,105.812 75.259,103.209 77.472,100.36 C70.971,100.36 64.823,100.36 58.674,100.353 C58.291,100.353 57.955,100.437 57.648,100.674 C53.414,104.082 49.332,107.642 46.63,112.474 C44.095,116.999 44.18,121.478 46.967,125.889 C48.95,129.028 51.576,131.586 54.294,134.059 C58.307,137.704 62.518,141.126 66.278,145.039 L66.278,145.039 Z" id="Fill-3" fill="#D05A55"></path>
            <path d="M306.484,132.589 C309.974,132.589 313.463,132.602 316.952,132.586 C323.45,132.557 327.611,129.211 328.552,122.818 C329.65,115.357 324.744,109.435 317.589,109.392 C309.922,109.346 302.255,109.393 294.589,109.353 C293.604,109.347 293.359,109.664 293.364,110.608 C293.399,117.494 293.411,124.381 293.355,131.266 C293.346,132.415 293.753,132.624 294.778,132.61 C298.68,132.56 302.582,132.59 306.484,132.589 Z M287.308,134.869 C287.308,125.776 287.306,116.683 287.309,107.589 C287.31,104.766 288.186,103.891 291.003,103.89 C299.683,103.889 308.363,103.862 317.042,103.907 C321.573,103.93 325.732,105.152 329.258,108.139 C332.466,110.857 334.207,114.395 334.67,118.494 C335.238,123.527 334.156,128.17 330.734,132.089 C328.746,134.368 326.28,135.932 323.351,136.622 C322.082,136.921 322.099,137.307 322.597,138.327 C326.281,145.87 329.912,153.439 333.558,161.001 C333.717,161.331 333.887,161.659 334.013,162.003 C334.555,163.478 334.009,164.998 332.713,165.667 C331.457,166.315 329.927,165.967 329.065,164.695 C328.505,163.867 328.129,162.913 327.687,162.008 C323.904,154.258 320.114,146.51 316.361,138.745 C316.008,138.016 315.595,137.772 314.798,137.776 C308.093,137.806 301.388,137.824 294.684,137.763 C293.504,137.753 293.361,138.206 293.365,139.2 C293.397,147.007 293.388,154.814 293.379,162.622 C293.377,164.708 292.165,165.944 290.189,165.93 C288.444,165.919 287.344,164.888 287.325,163.112 C287.288,159.577 287.309,156.04 287.308,152.504 C287.307,146.626 287.308,140.747 287.308,134.869 L287.308,134.869 Z" id="Fill-4" fill="#919491"></path>
            <path d="M574.044,114.477 L574.044,115.978 C574.044,131.502 574.046,147.026 574.042,162.55 C574.041,164.709 572.976,165.935 571.132,165.946 C569.646,165.954 568.484,164.971 568.278,163.498 C568.221,163.091 568.245,162.673 568.245,162.259 C568.244,143.796 568.244,125.332 568.245,106.867 C568.245,106.455 568.206,106.03 568.284,105.631 C568.512,104.473 569.145,103.608 570.293,103.214 C571.41,102.83 572.418,103.124 573.18,103.968 C573.884,104.747 574.477,105.63 575.081,106.494 C586.169,122.379 597.311,138.224 608.755,153.855 C608.945,154.114 609.144,154.365 609.411,154.715 C609.709,154.212 609.585,153.72 609.585,153.269 C609.594,138.112 609.592,122.955 609.592,107.798 C609.592,107.384 609.59,106.971 609.593,106.558 C609.611,104.436 610.736,103.071 612.464,103.071 C614.208,103.071 615.39,104.436 615.392,106.508 C615.401,113.811 615.396,121.114 615.396,128.417 C615.396,139.808 615.398,151.198 615.394,162.589 C615.393,164.371 614.761,165.367 613.39,165.82 C612.01,166.275 610.962,165.88 609.974,164.494 C604.141,156.306 598.313,148.115 592.483,139.925 C586.653,131.736 580.824,123.545 574.985,115.36 C574.763,115.049 574.641,114.612 574.044,114.477" id="Fill-5" fill="#D05A55"></path>
            <path d="M392.675,154.407 L392.675,152.922 C392.675,137.581 392.676,122.24 392.673,106.9 C392.673,106.21 392.663,105.525 392.939,104.869 C393.465,103.621 394.758,102.877 396.041,103.096 C397.326,103.316 398.354,104.434 398.456,105.735 C398.481,106.055 398.476,106.378 398.476,106.699 C398.476,125.301 398.445,143.902 398.513,162.504 C398.523,165.074 396.832,166.107 395.082,165.934 C393.966,165.823 393.433,165.013 392.878,164.236 C389.251,159.157 385.643,154.066 382.023,148.983 C374.012,137.732 365.998,126.482 357.982,115.234 C357.801,114.979 357.591,114.745 357.333,114.425 C356.981,114.964 357.135,115.474 357.135,115.941 C357.124,131.511 357.128,147.082 357.123,162.652 C357.122,164.766 356.115,165.905 354.279,165.93 C352.714,165.95 351.551,164.963 351.352,163.412 C351.299,163.005 351.327,162.587 351.327,162.174 C351.327,143.756 351.326,125.337 351.33,106.919 C351.33,106.327 351.276,105.733 351.512,105.153 C351.956,104.06 352.647,103.242 353.872,103.094 C355.192,102.934 356.151,103.557 356.893,104.619 C360.252,109.437 363.61,114.256 366.995,119.056 C375.166,130.644 383.33,142.236 391.732,153.659 C391.943,153.946 392.176,154.217 392.399,154.496 C392.491,154.466 392.583,154.437 392.675,154.407" id="Fill-6" fill="#919491"></path>
            <path d="M539.675,132.552 C542.844,132.552 546.014,132.545 549.184,132.554 C551.363,132.561 552.553,133.675 552.564,135.823 C552.592,141.152 552.565,146.481 552.582,151.81 C552.585,152.782 552.269,153.602 551.677,154.343 C544.453,163.392 534.998,167.308 523.553,166.234 C508.602,164.831 497.324,151.961 496.273,137.238 C495.297,123.56 502.237,111.216 513.981,105.613 C525.027,100.344 538.684,102.485 547.25,110.829 C547.414,110.989 547.586,111.143 547.741,111.313 C548.749,112.424 548.835,114.065 547.943,115.082 C547.105,116.035 545.499,116.18 544.289,115.343 C543.156,114.562 542.074,113.707 540.964,112.891 C531.206,105.719 518.901,107.468 511.68,113.53 C506.492,117.886 503.459,123.497 502.511,130.144 C501.18,139.476 503.542,147.773 510.335,154.475 C519.76,163.776 536.69,163.024 545.345,153.086 C546.139,152.175 546.548,151.263 546.519,150.013 C546.436,146.478 546.437,142.938 546.52,139.403 C546.548,138.215 546.169,137.975 545.055,137.988 C540.094,138.049 535.133,138 530.171,138.024 C528.865,138.03 527.816,137.634 527.196,136.44 C526.265,134.646 527.517,132.595 529.615,132.566 C532.967,132.518 536.322,132.553 539.675,132.552" id="Fill-7" fill="#D05A55"></path>
            <path d="M439.637,102.792 C445.03,102.92 451.742,104.641 457.838,108.505 C458.264,108.775 458.686,109.058 459.075,109.378 C460.295,110.383 460.57,111.849 459.789,113.058 C458.968,114.331 457.474,114.71 456.051,113.865 C453.682,112.458 451.306,111.064 448.705,110.131 C441.905,107.693 435.049,107.42 428.238,109.979 C425.149,111.14 422.766,113.161 422.094,116.652 C421.496,119.766 422.416,122.355 424.781,124.447 C426.983,126.396 429.621,127.582 432.293,128.691 C437.841,130.993 443.665,132.561 449.148,135.04 C451.035,135.894 452.816,136.921 454.531,138.082 C463.432,144.11 461.961,155.876 455.167,161.249 C451.52,164.134 447.298,165.557 442.776,166.119 C434.071,167.2 425.894,165.447 418.223,161.246 C416.397,160.246 414.771,158.977 413.394,157.409 C412.057,155.889 411.97,154.376 413.115,153.241 C414.267,152.099 415.598,152.132 417.165,153.433 C421.641,157.151 426.707,159.618 432.46,160.525 C438.232,161.435 443.923,161.248 449.236,158.45 C453.268,156.326 455.186,152.388 454.43,148.139 C454.05,146.002 452.698,144.536 451.074,143.272 C448.548,141.305 445.656,140.023 442.695,138.881 C437.692,136.95 432.669,135.067 427.684,133.091 C424.981,132.02 422.484,130.541 420.346,128.55 C413.336,122.022 414.657,110.987 422.999,106.166 C426.817,103.96 431.981,102.787 439.637,102.792" id="Fill-8" fill="#D05A55"></path>
            <path d="M656.664,112.572 C652.289,122.232 648.042,131.635 643.76,141.022 C643.254,142.131 643.912,141.997 644.584,141.997 C652.533,141.993 660.48,141.996 668.428,141.993 C669.904,141.993 669.905,141.984 669.267,140.569 C666.857,135.217 664.446,129.865 662.036,124.513 C660.288,120.631 658.542,116.748 656.664,112.572 Z M685.391,162.868 C685.394,164.472 684.63,165.526 683.309,165.873 C681.915,166.239 680.654,165.621 679.971,164.129 C677.623,159.003 675.271,153.879 673.005,148.716 C672.525,147.62 671.948,147.269 670.758,147.276 C661.437,147.33 652.116,147.337 642.795,147.273 C641.42,147.264 640.705,147.607 640.136,148.935 C638.027,153.864 635.762,158.727 633.562,163.618 C633.076,164.702 632.461,165.663 631.194,165.899 C630.066,166.109 629.064,165.758 628.385,164.837 C627.684,163.885 627.606,162.806 628.105,161.709 C630.231,157.036 632.355,152.362 634.48,147.689 C640.818,133.753 647.156,119.818 653.495,105.883 C653.589,105.674 653.681,105.464 653.779,105.257 C654.361,104.018 655.202,103.083 656.679,103.084 C658.116,103.085 658.897,104.037 659.44,105.224 C661.118,108.892 662.782,112.567 664.452,116.238 C671.28,131.26 678.108,146.281 684.938,161.302 C685.185,161.845 685.511,162.362 685.391,162.868 L685.391,162.868 Z" id="Fill-9" fill="#D05A55"></path>
            <path d="M259.322,141.972 C254.869,132.078 250.54,122.459 246.13,112.66 C245.822,113.281 245.607,113.682 245.42,114.095 C241.424,122.904 237.431,131.715 233.437,140.526 C232.79,141.954 232.797,141.971 234.449,141.971 C242.023,141.974 249.599,141.972 257.174,141.972 L259.322,141.972 Z M246.005,147.36 C241.229,147.36 236.454,147.39 231.679,147.336 C230.646,147.324 230.163,147.661 229.746,148.61 C227.515,153.689 225.196,158.73 222.915,163.787 C222.441,164.838 221.812,165.715 220.585,165.903 C219.454,166.077 218.459,165.747 217.796,164.795 C217.081,163.768 217.123,162.634 217.624,161.523 C219.299,157.802 220.982,154.084 222.673,150.37 C229.497,135.39 236.327,120.413 243.144,105.429 C243.732,104.136 244.536,103.132 246.064,103.081 C247.589,103.029 248.337,104.058 248.899,105.294 C255.769,120.404 262.639,135.514 269.512,150.623 C271.183,154.296 272.849,157.971 274.557,161.628 C275.105,162.802 274.97,163.898 274.265,164.875 C273.635,165.749 272.653,166.035 271.57,165.914 C270.429,165.787 269.813,165.066 269.369,164.081 C267.086,159.025 264.755,153.989 262.512,148.915 C262,147.757 261.378,147.297 260.055,147.323 C255.374,147.417 250.689,147.36 246.005,147.36 L246.005,147.36 Z" id="Fill-10" fill="#919491"></path>
            <path d="M168.265,134.455 C168.265,125.547 168.264,116.637 168.266,107.729 C168.266,104.87 169.223,103.891 172.034,103.891 C183.331,103.888 194.627,103.889 205.924,103.89 C206.246,103.89 206.569,103.877 206.888,103.903 C208.402,104.028 209.597,105.282 209.57,106.703 C209.542,108.2 208.415,109.351 206.815,109.392 C204.841,109.443 202.866,109.409 200.891,109.41 C192.487,109.41 184.084,109.427 175.68,109.388 C174.632,109.383 174.264,109.614 174.274,110.743 C174.332,116.85 174.326,122.958 174.278,129.065 C174.27,130.145 174.568,130.474 175.664,130.463 C180.853,130.408 186.042,130.435 191.231,130.443 C191.779,130.444 192.335,130.463 192.874,130.552 C194.622,130.843 195.426,131.88 195.296,133.614 C195.187,135.061 194.136,136.014 192.501,136.088 C191.585,136.129 190.665,136.097 189.747,136.097 C185.062,136.098 180.378,136.124 175.695,136.077 C174.665,136.067 174.265,136.281 174.274,137.425 C174.329,144.359 174.33,151.294 174.274,158.227 C174.265,159.408 174.645,159.666 175.758,159.661 C186.137,159.622 196.515,159.636 206.894,159.643 C207.44,159.643 208,159.655 208.533,159.765 C210.108,160.09 210.796,160.989 210.761,162.581 C210.728,164.063 209.855,165.045 208.333,165.269 C207.927,165.328 207.508,165.302 207.095,165.302 C195.523,165.304 183.951,165.304 172.378,165.303 C169.276,165.302 168.266,164.287 168.266,161.182 C168.265,152.273 168.265,143.364 168.265,134.455" id="Fill-11" fill="#919491"></path>
            <path d="M114.32,134.124 C114.32,125.212 114.318,116.299 114.327,107.387 C114.327,106.795 114.362,106.192 114.47,105.611 C114.779,103.961 115.955,103.013 117.549,103.071 C119.106,103.128 120.297,104.215 120.504,105.817 C120.568,106.315 120.533,106.826 120.533,107.331 C120.534,124.191 120.551,141.05 120.503,157.91 C120.499,159.278 120.803,159.684 122.232,159.674 C132.2,159.606 142.169,159.634 152.138,159.641 C154.491,159.643 155.614,160.557 155.61,162.408 C155.607,164.098 154.532,165.217 152.771,165.293 C151.717,165.338 150.659,165.303 149.602,165.303 C139.174,165.303 128.746,165.305 118.318,165.302 C115.466,165.301 114.325,164.159 114.323,161.274 C114.316,152.224 114.32,143.174 114.32,134.124" id="Fill-12" fill="#919491"></path>
            <path d="M697.813,134.149 C697.813,124.965 697.808,115.781 697.817,106.597 C697.819,104.436 698.985,103.096 700.826,103.073 C702.45,103.054 703.732,104.203 703.869,105.825 C703.911,106.327 703.895,106.835 703.895,107.339 C703.896,124.284 703.909,141.228 703.869,158.173 C703.866,159.366 704.14,159.718 705.377,159.712 C715.341,159.659 725.306,159.681 735.271,159.683 C737.865,159.683 739.103,160.56 739.107,162.387 C739.112,164.285 737.796,165.273 735.253,165.274 C724.141,165.275 713.029,165.275 701.916,165.273 C698.783,165.273 697.814,164.297 697.813,161.149 C697.812,152.149 697.813,143.149 697.813,134.149" id="Fill-13" fill="#D05A55"></path>
            <path d="M475.888,134.478 L475.888,107.195 C475.888,106.736 475.866,106.274 475.905,105.818 C476.035,104.322 477.211,103.178 478.695,103.078 C480.171,102.978 481.373,103.841 481.75,105.301 C481.841,105.652 481.896,106.025 481.896,106.387 C481.903,125.127 481.906,143.866 481.894,162.605 C481.893,164.475 480.919,165.718 479.431,165.916 C477.419,166.185 475.917,164.928 475.9,162.862 C475.867,158.866 475.888,154.87 475.888,150.875 C475.887,145.409 475.888,139.943 475.888,134.478" id="Fill-14" fill="#D05A55"></path>
            <text id="Helping-you-pass-your-ACCA" font-family="Rubik-Light, Rubik" font-size="48.6456" font-weight="300" letter-spacing="0.005" fill="#919491">
                <tspan x="109.983" y="221.298083">Helping </tspan>
                <tspan x="288.892871" y="221.298083" letter-spacing="-0.8219752">y</tspan>
                <tspan x="313.12338" y="221.298083">ou</tspan>
                <tspan x="368.735301" y="221.298083" letter-spacing="1.3184312"> </tspan>
                <tspan x="382.604297" y="221.298083">pass </tspan>
                <tspan x="496.070836" y="221.298083" letter-spacing="-0.8219752">y</tspan>
                <tspan x="520.301345" y="221.298083">ou</tspan>
                <tspan x="575.913266" y="221.298083" letter-spacing="-1.1624944">r</tspan>
                <tspan x="590.511946" y="221.298083"> </tspan>
                <tspan x="601.754079" y="221.298083" letter-spacing="-0.5787472">A</tspan>
                <tspan x="632.211225" y="221.298083">C</tspan>
                <tspan x="663.88451" y="221.298083" letter-spacing="-0.2868736">C</tspan>
                <tspan x="694.974049" y="221.298083">A</tspan>
            </text>
        </g>
    </g>
</svg>