<svg width="180" height="35" viewBox="0 0 180 35" fill="none" xmlns="http://www.w3.org/2000/svg">
<path fill-rule="evenodd" clip-rule="evenodd" d="M154.486 7.2605C150.814 7.2605 148.447 8.88621 146.657 11.3069L150.143 13.8008C150.945 12.4524 152.379 11.1958 154.523 11.1958C157.486 11.1958 158.307 12.3599 158.4 15.0942H153.349C149.174 15.0942 145.93 16.4239 145.93 20.4335C145.93 24.2945 148.876 26.4748 152.696 26.4748C154.821 26.4748 157.3 25.5511 158.511 23.6481L158.791 26.1057H162.537V14.9094C162.537 10.4014 159.555 7.2605 154.486 7.2605ZM158.419 18.4937C158.139 20.6734 156.406 22.6688 153.609 22.6688C151.578 22.6688 150.59 21.8007 150.59 20.5809C150.59 19.4174 151.541 18.3457 153.609 18.3457H158.419V18.4937Z" fill="white"/>
<path fill-rule="evenodd" clip-rule="evenodd" d="M126.886 26.1054H131.434V15.9996C131.434 12.7844 133.036 11.4173 135.59 11.4173C137.92 11.4173 139.15 13.1723 139.15 15.593V26.1054H143.698V15.0203C143.698 11.1587 141.778 7.26025 136.895 7.26025C135.068 7.26025 132.925 7.98097 131.434 9.79155V7.64869H126.886V26.1054Z" fill="white"/>
<path fill-rule="evenodd" clip-rule="evenodd" d="M116.806 23.2232C113.488 22.8166 111.196 22.7798 111.196 21.2652C111.196 20.8399 111.364 20.5258 111.736 20.2853C112.799 20.7475 113.992 21.0061 115.278 21.0061C119.359 21.0061 122.845 18.3829 122.845 14.2628C122.845 13.0618 122.565 11.9719 122.043 11.0482L124.746 8.88604L122.379 6.02246L119.527 8.44261C118.279 7.68503 116.75 7.26032 115.129 7.26032C111.009 7.26032 107.487 10.0315 107.487 14.0411C107.487 15.6668 108.065 17.1263 109.034 18.2905C107.934 19.2511 107.3 20.4334 107.3 22.0591C107.3 23.8334 108.046 24.9414 109.127 25.6621L106.964 27.4727C106.927 27.6575 106.89 27.8424 106.89 28.2671C106.89 32.0544 109.947 34.8442 115.818 34.8442C120.44 34.8442 124.056 32.8488 124.056 28.6737C124.056 24.4424 120.329 23.6854 116.806 23.2232ZM115.278 10.7522C117.272 10.7522 118.335 12.1381 118.335 14.0779C118.335 15.9622 117.309 17.3293 115.278 17.3293C113.264 17.3293 112.183 15.9622 112.183 14.0779C112.183 12.1381 113.302 10.7522 115.278 10.7522ZM115.78 31.3711C113.525 31.3711 111.587 30.7241 111.047 28.8767L110.935 28.3777L111.941 26.7151C113.078 26.9368 114.234 27.0292 115.203 27.1217C118.297 27.4358 119.751 27.7681 119.751 29.1721C119.751 30.6504 118.185 31.3711 115.78 31.3711Z" fill="white"/>
<path fill-rule="evenodd" clip-rule="evenodd" d="M99.2334 26.1057H103.781V7.64893H99.2334V26.1057Z" fill="white"/>
<path fill-rule="evenodd" clip-rule="evenodd" d="M99.1216 4.15701H103.893V0H99.1216V4.15701Z" fill="white"/>
<path fill-rule="evenodd" clip-rule="evenodd" d="M88.855 26.4748C92.3777 26.4748 96.1241 24.5905 96.1241 20.3224C96.1241 13.5422 86.6555 15.2048 86.6555 12.4149C86.6555 11.5468 87.5691 10.8261 89.0598 10.8261C91.0729 10.8261 92.1169 12.0271 92.7501 13.1725L96.2734 11.2695C94.8564 8.77506 92.4149 7.2605 89.2091 7.2605C85.6121 7.2605 82.2942 9.10793 82.2942 13.0064C82.2942 19.5279 91.6507 17.4407 91.6507 20.5441C91.6507 21.5234 90.7371 22.7431 88.6314 22.7431C86.1527 22.7431 85.1648 21.0431 84.6613 19.7128L81.0454 21.3017C81.959 24.1471 84.9405 26.4748 88.855 26.4748Z" fill="white"/>
<path fill-rule="evenodd" clip-rule="evenodd" d="M62.5225 26.1054H67.0703V15.9996C67.0703 12.7844 68.6731 11.4173 71.2268 11.4173C73.5568 11.4173 74.7867 13.1723 74.7867 15.593V26.1054H79.3345V15.0203C79.3345 11.1587 77.4147 7.26025 72.5316 7.26025C70.7045 7.26025 68.561 7.98097 67.0703 9.79155V7.64869H62.5225V26.1054Z" fill="white"/>
<path fill-rule="evenodd" clip-rule="evenodd" d="M48.1743 26.1054H52.5728V18.3086C52.5728 13.6157 54.7912 11.6577 56.9158 11.6577C57.6429 11.6577 58.3328 11.8794 58.9472 12.286L61.0163 8.59054C60.1216 7.68555 58.8356 7.26025 57.6057 7.26025C55.5177 7.26025 53.412 8.51683 52.61 10.7521V7.64869H48.1743V26.1054Z" fill="white"/>
<path fill-rule="evenodd" clip-rule="evenodd" d="M36.2308 7.2605C32.5588 7.2605 30.1922 8.88621 28.4029 11.3069L31.8884 13.8008C32.6892 12.4524 34.1245 11.1958 36.268 11.1958C39.2318 11.1958 40.0515 12.3599 40.1448 15.0942H35.0941C30.9187 15.0942 27.6758 16.4239 27.6758 20.4335C27.6758 24.2945 30.6207 26.4748 34.4414 26.4748C36.5666 26.4748 39.0453 25.5511 40.2569 23.6481L40.536 26.1057H44.2824V14.9094C44.2824 10.4014 41.3009 7.2605 36.2308 7.2605ZM40.1637 18.4937C39.8839 20.6734 38.1506 22.6688 35.355 22.6688C33.3231 22.6688 32.3357 21.8007 32.3357 20.5809C32.3357 19.4174 33.2859 18.3457 35.355 18.3457H40.1637V18.4937Z" fill="white"/>
<path fill-rule="evenodd" clip-rule="evenodd" d="M26.5054 16.5719C26.5054 12.4524 24.3991 7.2605 17.8761 7.2605C11.5755 7.2605 8.74268 12.1382 8.74268 16.9417C8.74268 21.9118 11.762 26.4748 18.1741 26.4748C21.3049 26.4748 23.7842 25.385 25.8161 23.1491L22.6847 20.4335C21.3799 21.8744 19.8885 22.3915 18.2113 22.3915C15.2852 22.3915 13.9432 20.7658 13.5519 18.3457H26.3372C26.4311 18.0865 26.5054 17.3295 26.5054 16.5719ZM13.5519 15.0936C13.9804 12.7847 15.1548 11.0478 17.8383 11.0478C19.8142 11.0478 21.417 12.0271 21.8827 13.9301C21.9948 14.2998 22.032 14.6877 22.032 15.0936H13.5519Z" fill="white"/>
<path fill-rule="evenodd" clip-rule="evenodd" d="M0 26.1406H4.5478V0.115723H0V26.1406Z" fill="white"/>
<path fill-rule="evenodd" clip-rule="evenodd" d="M166.568 26.026H171.116V0.00170898H166.568V26.026Z" fill="white"/>
<mask id="mask0" mask-type="alpha" maskUnits="userSpaceOnUse" x="174" y="20" width="6" height="7">
<path fill-rule="evenodd" clip-rule="evenodd" d="M174.066 20.1741H179.965V26.0217H174.066V20.1741Z" fill="white"/>
</mask>
<g mask="url(#mask0)">
<path fill-rule="evenodd" clip-rule="evenodd" d="M177.016 26.0217C178.645 26.0217 179.966 24.7125 179.966 23.0979C179.966 21.4833 178.645 20.1741 177.016 20.1741C175.387 20.1741 174.066 21.4833 174.066 23.0979C174.066 24.7125 175.387 26.0217 177.016 26.0217Z" fill="#00B67A"/>
</g>
</svg>
