<svg width="165" height="24" viewBox="0 0 165 24" fill="none" xmlns="http://www.w3.org/2000/svg">
  <path d="M41.401 16.2c.147 0 .274.053.38.16.107.107.16.233.16.38v.72a.519.519 0 0 1-.16.38.519.519 0 0 1-.38.16h-8.14a.52.52 0 0 1-.38-.16.52.52 0 0 1-.16-.38V4.54a.52.52 0 0 1 .16-.38.52.52 0 0 1 .38-.16h.82c.147 0 .274.053.38.16.107.107.16.233.16.38V16.2h6.78zM52.67 16.2c.146 0 .273.053.38.16.106.107.16.233.16.38v.72a.519.519 0 0 1-.16.38.519.519 0 0 1-.38.16h-8.08a.52.52 0 0 1-.38-.16.52.52 0 0 1-.16-.38V4.54a.52.52 0 0 1 .16-.38.52.52 0 0 1 .38-.16h7.92c.146 0 .273.053.38.16.106.107.16.233.16.38v.72a.519.519 0 0 1-.16.38.519.519 0 0 1-.38.16h-6.56v4.22h6.12c.146 0 .273.053.38.16.106.107.16.233.16.38v.72a.519.519 0 0 1-.16.38.519.519 0 0 1-.38.16h-6.12v4.38h6.72zM64.425 14.84h-6.94l-1.04 2.66c-.04.107-.113.22-.22.34-.106.107-.293.16-.56.16h-.74a.478.478 0 0 1-.32-.12.478.478 0 0 1-.12-.32c0-.067.027-.16.08-.28l4.9-12.62c.067-.147.167-.293.3-.44.134-.147.334-.22.6-.22h1.2c.267 0 .467.073.6.22.134.147.234.293.3.44l4.88 12.62c.054.12.08.213.08.28a.44.44 0 0 1-.14.32c-.08.08-.18.12-.3.12h-.74c-.266 0-.453-.053-.56-.16a1.121 1.121 0 0 1-.22-.34l-1.04-2.66zm-6.24-1.8h5.54l-2.76-7.14-2.78 7.14zM74.859 4c.653 0 1.267.08 1.84.24.587.16 1.1.407 1.54.74.44.333.787.76 1.04 1.28.267.52.4 1.147.4 1.88 0 1.08-.273 1.94-.82 2.58-.533.64-1.22 1.093-2.06 1.36l3.02 5.26c.04.08.06.153.06.22a.44.44 0 0 1-.14.32c-.08.08-.18.12-.3.12h-.86c-.267 0-.467-.067-.6-.2a2.106 2.106 0 0 1-.26-.34l-2.9-5.1h-3.44v5.1a.519.519 0 0 1-.16.38.519.519 0 0 1-.38.16h-.82a.52.52 0 0 1-.38-.16.52.52 0 0 1-.16-.38V4.54a.52.52 0 0 1 .16-.38.52.52 0 0 1 .38-.16h4.84zm-3.48 6.56h3.38c.96 0 1.7-.187 2.22-.56.533-.387.8-1.007.8-1.86 0-.853-.267-1.453-.8-1.8-.52-.36-1.26-.54-2.22-.54h-3.38v4.76zM91.706 18a.693.693 0 0 1-.48-.18 3.17 3.17 0 0 1-.32-.42l-6.5-9.78v9.84a.52.52 0 0 1-.16.38.52.52 0 0 1-.38.16h-.82a.519.519 0 0 1-.38-.16.519.519 0 0 1-.16-.38V4.54c0-.147.054-.273.16-.38a.519.519 0 0 1 .38-.16h.7c.187 0 .34.067.46.2.134.12.247.253.34.4l6.5 9.78V4.54c0-.147.054-.273.16-.38a.519.519 0 0 1 .38-.16h.82a.52.52 0 0 1 .38.16.52.52 0 0 1 .16.38v12.92a.52.52 0 0 1-.16.38.52.52 0 0 1-.38.16h-.7z" fill="#fff"/>
  <path d="M101.021 3.8c.814 0 1.527.127 2.14.38.627.253 1.154.567 1.58.94.44.36.774.753 1 1.18.227.413.347.787.36 1.12a.373.373 0 0 1-.12.32c-.093.08-.2.12-.32.12h-.82a.723.723 0 0 1-.36-.08c-.08-.053-.166-.173-.26-.36-.066-.133-.18-.3-.34-.5a2.413 2.413 0 0 0-.62-.6 3.279 3.279 0 0 0-.94-.5c-.373-.147-.806-.22-1.3-.22-.373 0-.733.047-1.08.14-.333.08-.633.207-.9.38-.266.173-.48.393-.64.66a1.65 1.65 0 0 0-.24.9c0 .347.074.64.22.88.16.24.407.46.74.66.347.187.78.36 1.3.52.52.16 1.154.34 1.9.54.76.2 1.4.42 1.92.66.534.24.967.513 1.3.82.334.293.574.64.72 1.04.16.387.24.827.24 1.32 0 .6-.133 1.153-.4 1.66-.253.493-.613.92-1.08 1.28-.466.36-1.033.64-1.7.84-.653.2-1.386.3-2.2.3a6.491 6.491 0 0 1-2.14-.34 5.887 5.887 0 0 1-1.68-.88c-.466-.36-.84-.76-1.12-1.2-.266-.44-.406-.873-.42-1.3 0-.12.04-.22.12-.3a.44.44 0 0 1 .32-.14h.82c.134 0 .247.027.34.08.107.053.2.173.28.36.08.187.2.393.36.62.174.213.4.42.68.62.28.187.62.347 1.02.48s.874.2 1.42.2a5.26 5.26 0 0 0 1.32-.16c.427-.107.8-.26 1.12-.46.32-.2.574-.44.76-.72.187-.28.28-.593.28-.94s-.106-.64-.32-.88c-.213-.253-.52-.48-.92-.68-.4-.2-.893-.38-1.48-.54a46.077 46.077 0 0 0-1.96-.54c-.666-.173-1.233-.38-1.7-.62a4.332 4.332 0 0 1-1.14-.86 3.013 3.013 0 0 1-.64-1.06 4.232 4.232 0 0 1-.18-1.26c0-.493.1-.973.3-1.44.2-.467.494-.88.88-1.24.4-.36.894-.647 1.48-.86.6-.227 1.3-.34 2.1-.34zM109.625 18a.517.517 0 0 1-.38-.16.518.518 0 0 1-.16-.38V4.54c0-.147.053-.273.16-.38a.518.518 0 0 1 .38-.16h.82a.52.52 0 0 1 .38.16c.106.107.16.233.16.38v12.92a.522.522 0 0 1-.16.38.52.52 0 0 1-.38.16h-.82zM113.897 9.18a7.064 7.064 0 0 1 .38-2.08 4.96 4.96 0 0 1 1.06-1.72 5.025 5.025 0 0 1 1.78-1.16c.706-.28 1.54-.42 2.5-.42.906 0 1.7.133 2.38.4.693.267 1.266.6 1.72 1 .466.387.813.807 1.04 1.26.24.44.366.84.38 1.2a.379.379 0 0 1-.12.32c-.094.08-.2.12-.32.12h-.82c-.32 0-.514-.073-.58-.22-.16-.32-.347-.62-.56-.9-.2-.28-.44-.52-.72-.72-.28-.2-.62-.36-1.02-.48-.387-.12-.847-.18-1.38-.18-.547 0-1.054.08-1.52.24a3.143 3.143 0 0 0-1.18.68c-.334.307-.6.693-.8 1.16-.2.453-.307.987-.32 1.6-.027.6-.04 1.153-.04 1.66 0 .507.013 1.06.04 1.66.013.64.12 1.2.32 1.68s.466.88.8 1.2c.333.307.726.54 1.18.7.466.147.973.22 1.52.22.533 0 1.033-.067 1.5-.2a3.248 3.248 0 0 0 1.22-.64 3 3 0 0 0 .8-1.18c.2-.48.3-1.067.3-1.76v-.56h-2.88a.517.517 0 0 1-.38-.16.518.518 0 0 1-.16-.38v-.72c0-.147.053-.273.16-.38a.518.518 0 0 1 .38-.16h4.24c.146 0 .273.053.38.16.106.107.16.233.16.38v1.9c0 .8-.127 1.54-.38 2.22a4.897 4.897 0 0 1-1.12 1.74c-.48.48-1.08.86-1.8 1.14-.707.267-1.514.4-2.42.4-.96 0-1.794-.14-2.5-.42-.707-.293-1.294-.687-1.76-1.18a4.924 4.924 0 0 1-1.06-1.74 7.037 7.037 0 0 1-.4-2.16 51.64 51.64 0 0 1 0-3.52zM137.288 18a.695.695 0 0 1-.48-.18 3.232 3.232 0 0 1-.32-.42l-6.5-9.78v9.84a.518.518 0 0 1-.16.38.517.517 0 0 1-.38.16h-.82a.52.52 0 0 1-.38-.16.522.522 0 0 1-.16-.38V4.54c0-.147.054-.273.16-.38a.52.52 0 0 1 .38-.16h.7a.59.59 0 0 1 .46.2c.134.12.247.253.34.4l6.5 9.78V4.54c0-.147.054-.273.16-.38a.52.52 0 0 1 .38-.16h.82c.147 0 .274.053.38.16.107.107.16.233.16.38v12.92a.518.518 0 0 1-.16.38.517.517 0 0 1-.38.16h-.7zM150.515 14.84h-6.94l-1.04 2.66c-.04.107-.113.22-.22.34-.107.107-.293.16-.56.16h-.74a.477.477 0 0 1-.32-.12.478.478 0 0 1-.12-.32c0-.067.027-.16.08-.28l4.9-12.62a1.74 1.74 0 0 1 .3-.44c.133-.147.333-.22.6-.22h1.2c.267 0 .467.073.6.22.133.147.233.293.3.44l4.88 12.62c.053.12.08.213.08.28 0 .12-.047.227-.14.32-.08.08-.18.12-.3.12h-.74c-.267 0-.453-.053-.56-.16a1.116 1.116 0 0 1-.22-.34l-1.04-2.66zm-6.24-1.8h5.54l-2.76-7.14-2.78 7.14zM164.249 16.2c.147 0 .273.053.38.16.107.107.16.233.16.38v.72a.518.518 0 0 1-.16.38.519.519 0 0 1-.38.16h-8.14a.519.519 0 0 1-.38-.16.518.518 0 0 1-.16-.38V4.54c0-.147.053-.273.16-.38a.52.52 0 0 1 .38-.16h.82a.52.52 0 0 1 .38.16c.107.107.16.233.16.38V16.2h6.78zM11.288 23.34A11.49 11.49 0 0 1 0 11.67 11.49 11.49 0 0 1 11.288 0a11.49 11.49 0 0 1 11.286 11.67 11.49 11.49 0 0 1-11.286 11.67z" fill="#F34664"/>
  <path d="M7.01 15.101c.102 0 7.528.09 7.9 0a6.771 6.771 0 0 1 2.077 3.894c-1.58.124-11.173.192-11.162.136.226-.802 1.129-4.086 1.129-4.086l.056.056z" fill="#fff"/>
  <path d="M4.234 3.995a27.177 27.177 0 0 1 4.086-.079c.508 0 .462.644.496 1.253 0 2.562-.101 11.862-.101 11.862s0 2.11 1.128 2.167c1.129.057-3.578-.011-3.973-.011-.564 0-1.433-.542-1.456-1.998 0-.677-.079-13.137-.18-13.194zM13.116 12.63c1.896 1.715 4.109 3.6 4.436 6.399 6.975-8.69-4.707-9.47-4.176-15.113-5.09 4.086-2.991 6.242-.26 8.714z" fill="#fff"/>
  <path d="M5.758 3.916h.598-2.02c-.644.113-.915.395-1.22 2.766H6.91a8.194 8.194 0 0 0-.553-2.788l-.598.022zM13.408 3.903h4.515c-2.11 2.777-3.905 5.249-4.267 5.644-.36.395-.406-5.407-.293-5.644h.045z" fill="#fff"/>
</svg>
