<svg width="165" height="24" viewBox="0 0 165 24" fill="none" xmlns="http://www.w3.org/2000/svg">
<path d="M41.4012 16.2C41.5479 16.2 41.6746 16.2533 41.7812 16.36C41.8879 16.4667 41.9412 16.5933 41.9412 16.74V17.46C41.9412 17.6067 41.8879 17.7333 41.7812 17.84C41.6746 17.9467 41.5479 18 41.4012 18H33.2612C33.1146 18 32.9879 17.9467 32.8812 17.84C32.7746 17.7333 32.7212 17.6067 32.7212 17.46V4.54C32.7212 4.39333 32.7746 4.26667 32.8812 4.16C32.9879 4.05333 33.1146 4 33.2612 4H34.0812C34.2279 4 34.3546 4.05333 34.4612 4.16C34.5679 4.26667 34.6212 4.39333 34.6212 4.54V16.2H41.4012Z" fill="white"/>
<path d="M52.6693 16.2C52.816 16.2 52.9427 16.2533 53.0493 16.36C53.156 16.4667 53.2093 16.5933 53.2093 16.74V17.46C53.2093 17.6067 53.156 17.7333 53.0493 17.84C52.9427 17.9467 52.816 18 52.6693 18H44.5893C44.4427 18 44.316 17.9467 44.2093 17.84C44.1027 17.7333 44.0493 17.6067 44.0493 17.46V4.54C44.0493 4.39333 44.1027 4.26667 44.2093 4.16C44.316 4.05333 44.4427 4 44.5893 4H52.5093C52.656 4 52.7827 4.05333 52.8893 4.16C52.996 4.26667 53.0493 4.39333 53.0493 4.54V5.26C53.0493 5.40667 52.996 5.53333 52.8893 5.64C52.7827 5.74667 52.656 5.8 52.5093 5.8H45.9493V10.02H52.0693C52.216 10.02 52.3427 10.0733 52.4493 10.18C52.556 10.2867 52.6093 10.4133 52.6093 10.56V11.28C52.6093 11.4267 52.556 11.5533 52.4493 11.66C52.3427 11.7667 52.216 11.82 52.0693 11.82H45.9493V16.2H52.6693Z" fill="white"/>
<path d="M64.4253 14.84H57.4853L56.4453 17.5C56.4053 17.6067 56.332 17.72 56.2253 17.84C56.1186 17.9467 55.932 18 55.6653 18H54.9253C54.8053 18 54.6986 17.96 54.6053 17.88C54.5253 17.7867 54.4853 17.68 54.4853 17.56C54.4853 17.4933 54.512 17.4 54.5653 17.28L59.4653 4.66C59.532 4.51333 59.632 4.36667 59.7653 4.22C59.8986 4.07333 60.0986 4 60.3653 4H61.5653C61.832 4 62.032 4.07333 62.1653 4.22C62.2986 4.36667 62.3986 4.51333 62.4653 4.66L67.3453 17.28C67.3986 17.4 67.4253 17.4933 67.4253 17.56C67.4253 17.68 67.3786 17.7867 67.2853 17.88C67.2053 17.96 67.1053 18 66.9853 18H66.2453C65.9786 18 65.792 17.9467 65.6853 17.84C65.5786 17.72 65.5053 17.6067 65.4653 17.5L64.4253 14.84ZM58.1853 13.04H63.7253L60.9653 5.9L58.1853 13.04Z" fill="white"/>
<path d="M74.859 4C75.5124 4 76.1257 4.08 76.699 4.24C77.2857 4.4 77.799 4.64667 78.239 4.98C78.679 5.31333 79.0257 5.74 79.279 6.26C79.5457 6.78 79.679 7.40667 79.679 8.14C79.679 9.22 79.4057 10.08 78.859 10.72C78.3257 11.36 77.639 11.8133 76.799 12.08L79.819 17.34C79.859 17.42 79.879 17.4933 79.879 17.56C79.879 17.68 79.8324 17.7867 79.739 17.88C79.659 17.96 79.559 18 79.439 18H78.579C78.3124 18 78.1124 17.9333 77.979 17.8C77.859 17.6667 77.7724 17.5533 77.719 17.46L74.819 12.36H71.379V17.46C71.379 17.6067 71.3257 17.7333 71.219 17.84C71.1124 17.9467 70.9857 18 70.839 18H70.019C69.8724 18 69.7457 17.9467 69.639 17.84C69.5324 17.7333 69.479 17.6067 69.479 17.46V4.54C69.479 4.39333 69.5324 4.26667 69.639 4.16C69.7457 4.05333 69.8724 4 70.019 4H74.859ZM71.379 10.56H74.759C75.719 10.56 76.459 10.3733 76.979 10C77.5124 9.61333 77.779 8.99333 77.779 8.14C77.779 7.28667 77.5124 6.68667 76.979 6.34C76.459 5.98 75.719 5.8 74.759 5.8H71.379V10.56Z" fill="white"/>
<path d="M91.7064 18C91.5197 18 91.3597 17.94 91.2264 17.82C91.1064 17.6867 90.9997 17.5467 90.9064 17.4L84.4064 7.62V17.46C84.4064 17.6067 84.353 17.7333 84.2464 17.84C84.1397 17.9467 84.013 18 83.8664 18H83.0464C82.8997 18 82.773 17.9467 82.6664 17.84C82.5597 17.7333 82.5064 17.6067 82.5064 17.46V4.54C82.5064 4.39333 82.5597 4.26667 82.6664 4.16C82.773 4.05333 82.8997 4 83.0464 4H83.7464C83.933 4 84.0864 4.06667 84.2064 4.2C84.3397 4.32 84.453 4.45333 84.5464 4.6L91.0464 14.38V4.54C91.0464 4.39333 91.0997 4.26667 91.2064 4.16C91.313 4.05333 91.4397 4 91.5864 4H92.4064C92.553 4 92.6797 4.05333 92.7864 4.16C92.893 4.26667 92.9464 4.39333 92.9464 4.54V17.46C92.9464 17.6067 92.893 17.7333 92.7864 17.84C92.6797 17.9467 92.553 18 92.4064 18H91.7064Z" fill="white"/>
<path d="M101.021 3.80005C101.835 3.80005 102.548 3.92672 103.161 4.18005C103.788 4.43338 104.315 4.74672 104.741 5.12005C105.181 5.48005 105.515 5.87338 105.741 6.30005C105.968 6.71338 106.088 7.08672 106.101 7.42005C106.115 7.54005 106.075 7.64672 105.981 7.74005C105.888 7.82005 105.781 7.86005 105.661 7.86005H104.841C104.695 7.86005 104.575 7.83338 104.481 7.78005C104.401 7.72671 104.315 7.60672 104.221 7.42005C104.155 7.28672 104.041 7.12005 103.881 6.92005C103.735 6.70672 103.528 6.50672 103.261 6.32005C103.008 6.12005 102.695 5.95338 102.321 5.82005C101.948 5.67338 101.515 5.60005 101.021 5.60005C100.648 5.60005 100.288 5.64672 99.9412 5.74005C99.6079 5.82005 99.3079 5.94672 99.0412 6.12005C98.7746 6.29338 98.5612 6.51338 98.4012 6.78005C98.2412 7.03338 98.1612 7.33338 98.1612 7.68005C98.1612 8.02672 98.2346 8.32005 98.3812 8.56005C98.5412 8.80005 98.7879 9.02005 99.1212 9.22005C99.4679 9.40672 99.9012 9.58005 100.421 9.74005C100.941 9.90005 101.575 10.08 102.321 10.28C103.081 10.48 103.721 10.7 104.241 10.94C104.775 11.18 105.208 11.4534 105.541 11.76C105.875 12.0534 106.115 12.4 106.261 12.8C106.421 13.1867 106.501 13.6267 106.501 14.12C106.501 14.72 106.368 15.2734 106.101 15.7801C105.848 16.2734 105.488 16.7 105.021 17.06C104.555 17.42 103.988 17.7 103.321 17.9C102.668 18.1 101.935 18.2001 101.121 18.2001C100.348 18.2001 99.6346 18.0867 98.9812 17.8601C98.3279 17.6334 97.7679 17.34 97.3012 16.98C96.8346 16.62 96.4612 16.2201 96.1812 15.7801C95.9146 15.3401 95.7746 14.9067 95.7612 14.48C95.7612 14.36 95.8012 14.26 95.8812 14.18C95.9746 14.0867 96.0812 14.04 96.2012 14.04H97.0212C97.1546 14.04 97.2679 14.0667 97.3612 14.12C97.4679 14.1734 97.5612 14.2934 97.6412 14.48C97.7212 14.6667 97.8412 14.8734 98.0012 15.1C98.1746 15.3134 98.4012 15.52 98.6812 15.72C98.9612 15.9067 99.3012 16.0667 99.7012 16.2001C100.101 16.3334 100.575 16.4 101.121 16.4C101.588 16.4 102.028 16.3467 102.441 16.24C102.868 16.1334 103.241 15.9801 103.561 15.7801C103.881 15.5801 104.135 15.34 104.321 15.06C104.508 14.78 104.601 14.4667 104.601 14.12C104.601 13.7734 104.495 13.48 104.281 13.24C104.068 12.9867 103.761 12.76 103.361 12.56C102.961 12.36 102.468 12.18 101.881 12.02C101.308 11.8467 100.655 11.6667 99.9212 11.48C99.2546 11.3067 98.6879 11.1 98.2212 10.86C97.7546 10.6067 97.3746 10.32 97.0812 10C96.7879 9.68005 96.5746 9.32672 96.4412 8.94005C96.3212 8.55338 96.2612 8.13338 96.2612 7.68005C96.2612 7.18672 96.3612 6.70672 96.5612 6.24005C96.7612 5.77338 97.0546 5.36005 97.4412 5.00005C97.8412 4.64005 98.3346 4.35338 98.9212 4.14005C99.5212 3.91338 100.221 3.80005 101.021 3.80005Z" fill="#F14B4E"/>
<path d="M109.625 18C109.478 18 109.351 17.9467 109.245 17.84C109.138 17.7334 109.085 17.6067 109.085 17.46V4.54005C109.085 4.39338 109.138 4.26672 109.245 4.16005C109.351 4.05338 109.478 4.00005 109.625 4.00005H110.445C110.591 4.00005 110.718 4.05338 110.825 4.16005C110.931 4.26672 110.985 4.39338 110.985 4.54005V17.46C110.985 17.6067 110.931 17.7334 110.825 17.84C110.718 17.9467 110.591 18 110.445 18H109.625Z" fill="#F14B4E"/>
<path d="M113.897 9.18005C113.923 8.44672 114.05 7.75338 114.277 7.10005C114.517 6.44672 114.87 5.87338 115.337 5.38005C115.817 4.88672 116.41 4.50005 117.117 4.22005C117.823 3.94005 118.657 3.80005 119.617 3.80005C120.523 3.80005 121.317 3.93338 121.997 4.20005C122.69 4.46672 123.263 4.80005 123.717 5.20005C124.183 5.58672 124.53 6.00672 124.757 6.46005C124.997 6.90005 125.123 7.30005 125.137 7.66005C125.15 7.78005 125.11 7.88672 125.017 7.98005C124.923 8.06005 124.817 8.10005 124.697 8.10005H123.877C123.557 8.10005 123.363 8.02672 123.297 7.88005C123.137 7.56005 122.95 7.26005 122.737 6.98005C122.537 6.70005 122.297 6.46005 122.017 6.26005C121.737 6.06005 121.397 5.90005 120.997 5.78005C120.61 5.66005 120.15 5.60005 119.617 5.60005C119.07 5.60005 118.563 5.68005 118.097 5.84005C117.643 5.98672 117.25 6.21338 116.917 6.52005C116.583 6.82672 116.317 7.21338 116.117 7.68005C115.917 8.13338 115.81 8.66672 115.797 9.28005C115.77 9.88005 115.757 10.4334 115.757 10.94C115.757 11.4467 115.77 12 115.797 12.6C115.81 13.24 115.917 13.8 116.117 14.28C116.317 14.76 116.583 15.16 116.917 15.48C117.25 15.7867 117.643 16.0201 118.097 16.18C118.563 16.3267 119.07 16.4 119.617 16.4C120.15 16.4 120.65 16.3334 121.117 16.2001C121.583 16.0667 121.99 15.8534 122.337 15.56C122.683 15.2534 122.95 14.86 123.137 14.38C123.337 13.9001 123.437 13.3134 123.437 12.62V12.06H120.557C120.41 12.06 120.283 12.0067 120.177 11.9C120.07 11.7934 120.017 11.6667 120.017 11.5201V10.8C120.017 10.6534 120.07 10.5267 120.177 10.42C120.283 10.3134 120.41 10.26 120.557 10.26H124.797C124.943 10.26 125.07 10.3134 125.177 10.42C125.283 10.5267 125.337 10.6534 125.337 10.8V12.7C125.337 13.5 125.21 14.24 124.957 14.92C124.703 15.5867 124.33 16.1667 123.837 16.66C123.357 17.14 122.757 17.52 122.037 17.8C121.33 18.0667 120.523 18.2001 119.617 18.2001C118.657 18.2001 117.823 18.0601 117.117 17.7801C116.41 17.4867 115.823 17.0934 115.357 16.6C114.89 16.1067 114.537 15.5267 114.297 14.86C114.057 14.1934 113.923 13.4734 113.897 12.7C113.857 11.5267 113.857 10.3534 113.897 9.18005Z" fill="#F14B4E"/>
<path d="M137.288 18C137.102 18 136.942 17.94 136.808 17.82C136.688 17.6867 136.582 17.5467 136.488 17.4L129.988 7.62005V17.46C129.988 17.6067 129.935 17.7334 129.828 17.84C129.722 17.9467 129.595 18 129.448 18H128.628C128.482 18 128.355 17.9467 128.248 17.84C128.142 17.7334 128.088 17.6067 128.088 17.46V4.54005C128.088 4.39338 128.142 4.26672 128.248 4.16005C128.355 4.05338 128.482 4.00005 128.628 4.00005H129.328C129.515 4.00005 129.668 4.06672 129.788 4.20005C129.922 4.32005 130.035 4.45338 130.128 4.60005L136.628 14.38V4.54005C136.628 4.39338 136.682 4.26672 136.788 4.16005C136.895 4.05338 137.022 4.00005 137.168 4.00005H137.988C138.135 4.00005 138.262 4.05338 138.368 4.16005C138.475 4.26672 138.528 4.39338 138.528 4.54005V17.46C138.528 17.6067 138.475 17.7334 138.368 17.84C138.262 17.9467 138.135 18 137.988 18H137.288Z" fill="#F14B4E"/>
<path d="M150.515 14.84H143.575L142.535 17.5C142.495 17.6067 142.422 17.72 142.315 17.84C142.208 17.9467 142.022 18 141.755 18H141.015C140.895 18 140.788 17.96 140.695 17.88C140.615 17.7867 140.575 17.68 140.575 17.56C140.575 17.4934 140.602 17.4001 140.655 17.2801L145.555 4.66005C145.622 4.51338 145.722 4.36672 145.855 4.22005C145.988 4.07338 146.188 4.00005 146.455 4.00005H147.655C147.922 4.00005 148.122 4.07338 148.255 4.22005C148.388 4.36672 148.488 4.51338 148.555 4.66005L153.435 17.2801C153.488 17.4001 153.515 17.4934 153.515 17.56C153.515 17.68 153.468 17.7867 153.375 17.88C153.295 17.96 153.195 18 153.075 18H152.335C152.068 18 151.882 17.9467 151.775 17.84C151.668 17.72 151.595 17.6067 151.555 17.5L150.515 14.84ZM144.275 13.04H149.815L147.055 5.90005L144.275 13.04Z" fill="#F14B4E"/>
<path d="M164.249 16.2001C164.396 16.2001 164.522 16.2534 164.629 16.3601C164.736 16.4667 164.789 16.5934 164.789 16.74V17.46C164.789 17.6067 164.736 17.7334 164.629 17.84C164.522 17.9467 164.396 18 164.249 18H156.109C155.962 18 155.836 17.9467 155.729 17.84C155.622 17.7334 155.569 17.6067 155.569 17.46V4.54005C155.569 4.39338 155.622 4.26672 155.729 4.16005C155.836 4.05338 155.962 4.00005 156.109 4.00005H156.929C157.076 4.00005 157.202 4.05338 157.309 4.16005C157.416 4.26672 157.469 4.39338 157.469 4.54005V16.2001H164.249Z" fill="#F14B4E"/>
<path d="M11.2879 23.3405C8.24452 23.287 5.34667 22.0281 3.23059 19.8401C1.11451 17.652 -0.0468612 14.7137 0.00144904 11.6702C-0.0468612 8.62672 1.11451 5.68842 3.23059 3.50039C5.34667 1.31236 8.24452 0.0534378 11.2879 0C14.3314 0.0534378 17.2292 1.31236 19.3453 3.50039C21.4614 5.68842 22.6227 8.62672 22.5744 11.6702C22.6227 14.7137 21.4614 17.652 19.3453 19.8401C17.2292 22.0281 14.3314 23.287 11.2879 23.3405Z" fill="#F14B4E"/>
<path d="M7.01017 15.1014C7.11175 15.1014 14.5383 15.1916 14.9107 15.1014C16.0183 16.131 16.7494 17.5018 16.9874 18.9952C15.4073 19.1193 5.8138 19.1871 5.82509 19.1306C6.05082 18.3293 6.95374 15.0449 6.95374 15.0449L7.01017 15.1014Z" fill="white"/>
<path d="M4.2339 3.99538C5.59189 3.86655 6.95766 3.84014 8.31961 3.91638C8.8275 3.91638 8.78236 4.55971 8.81622 5.16918C8.81622 7.73121 8.71464 17.0313 8.71464 17.0313C8.71464 17.0313 8.71464 19.1419 9.84329 19.1983C10.9719 19.2547 6.26547 19.187 5.87044 19.187C5.30612 19.187 4.43706 18.6452 4.41449 17.1893C4.41449 16.5121 4.33548 4.05182 4.2339 3.99538Z" fill="white"/>
<path d="M13.1163 12.6296C15.0124 14.3451 17.2246 16.2299 17.5519 19.029C24.5269 10.3384 12.8454 9.55963 13.3759 3.91638C8.28569 8.00209 10.385 10.1578 13.1163 12.6296Z" fill="white"/>
<path d="M5.75754 3.91637H6.35572C5.84783 3.91637 4.74176 3.91637 4.33544 3.91637C3.69211 4.02924 3.42124 4.3114 3.1165 6.68156C5.8704 6.68156 5.3738 6.68156 6.90876 6.68156C6.88821 5.72719 6.70105 4.78374 6.35572 3.8938L5.75754 3.91637Z" fill="white"/>
<path d="M13.4081 3.90332H17.9227C15.8121 6.6798 14.0175 9.15154 13.6564 9.54656C13.2952 9.94159 13.2501 4.14034 13.3629 3.90332H13.4081Z" fill="white"/>
</svg>
