<?xml version="1.0" encoding="UTF-8" standalone="no"?>
<svg width="156px" height="21px" viewBox="0 0 156 21" version="1.1" xmlns="http://www.w3.org/2000/svg" xmlns:xlink="http://www.w3.org/1999/xlink" xmlns:sketch="http://www.bohemiancoding.com/sketch/ns">
    <!-- Generator: Sketch 3.3.2 (12043) - http://www.bohemiancoding.com/sketch -->
    <title>logo</title>
    <desc>Created with Sketch.</desc>
    <defs></defs>
    <g id="Page-1" stroke="none" stroke-width="1" fill="none" fill-rule="evenodd" sketch:type="MSPage">
        <g id="home-copy" sketch:type="MSArtboardGroup" transform="translate(-119.000000, -26.000000)">
            <g id="hero-copy" sketch:type="MSLayerGroup">
                <g id="head" sketch:type="MSShapeGroup">
                    <g id="menu" transform="translate(119.000000, 21.000000)">
                        <g id="logo" transform="translate(0.000000, 5.000000)">
                            <path d="M32.1970435,16.5456875 C32.1970435,16.3712708 32.1417935,16.2303958 32.0312935,16.1230625 C31.9207935,16.0157292 31.7810435,15.9620625 31.6120435,15.9620625 L24.7480435,15.9620625 L24.7480435,4.2493125 C24.7480435,4.06147917 24.6862935,3.90383333 24.5627935,3.776375 C24.4392935,3.64891667 24.2865435,3.5851875 24.1045435,3.5851875 C23.9225435,3.5851875 23.7697935,3.64891667 23.6462935,3.776375 C23.5227935,3.90383333 23.4610435,4.06147917 23.4610435,4.2493125 L23.4610435,16.5054375 C23.4610435,16.6932708 23.5227935,16.8509167 23.6462935,16.978375 C23.7697935,17.1058333 23.9225435,17.1695625 24.1045435,17.1695625 L31.6120435,17.1695625 C31.7810435,17.1695625 31.9207935,17.1091875 32.0312935,16.9884375 C32.1417935,16.8676875 32.1970435,16.7201042 32.1970435,16.5456875 L32.1970435,16.5456875 Z" id="Shape" fill="#FFFFFF"></path>
                            <path d="M43.8775435,16.5658125 C43.8775435,16.3913958 43.8222935,16.2471667 43.7117935,16.133125 C43.6012935,16.0190833 43.4615435,15.9620625 43.2925435,15.9620625 L36.1360435,15.9620625 L36.1360435,10.7899375 L40.0165435,10.7899375 C40.1855435,10.7899375 40.3252935,10.7329167 40.4357935,10.618875 C40.5462935,10.5048333 40.6015435,10.3606042 40.6015435,10.1861875 C40.6015435,10.0117708 40.5462935,9.86754167 40.4357935,9.7535 C40.3252935,9.63945833 40.1855435,9.5824375 40.0165435,9.5824375 L36.1360435,9.5824375 L36.1360435,4.9738125 L43.0000435,4.9738125 C43.1690435,4.9738125 43.3120435,4.91679167 43.4290435,4.80275 C43.5460435,4.68870833 43.6045435,4.54447917 43.6045435,4.3700625 C43.6045435,4.19564583 43.5460435,4.05141667 43.4290435,3.937375 C43.3120435,3.82333333 43.1690435,3.7663125 43.0000435,3.7663125 L35.5120435,3.7663125 C35.3300435,3.7663125 35.1772935,3.8266875 35.0537935,3.9474375 C34.9302935,4.0681875 34.8685435,4.22247917 34.8685435,4.4103125 L34.8685435,16.5054375 C34.8685435,16.6932708 34.9302935,16.8509167 35.0537935,16.978375 C35.1772935,17.1058333 35.3300435,17.1695625 35.5120435,17.1695625 L43.2925435,17.1695625 C43.4615435,17.1695625 43.6012935,17.1125417 43.7117935,16.9985 C43.8222935,16.8844583 43.8775435,16.7402292 43.8775435,16.5658125 L43.8775435,16.5658125 Z" id="Shape" fill="#FFFFFF"></path>
                            <path d="M57.4300435,16.7066875 L57.4300435,16.5859375 C57.4300435,16.5322708 57.4170435,16.4853125 57.3910435,16.4450625 L51.8920435,3.9675625 C51.8660435,3.90047917 51.8042935,3.81997917 51.7067935,3.7260625 C51.6092935,3.63214583 51.4890435,3.5851875 51.3460435,3.5851875 C51.2030435,3.5851875 51.0795435,3.63214583 50.9755435,3.7260625 C50.8715435,3.81997917 50.8065435,3.90047917 50.7805435,3.9675625 L45.2815435,16.4450625 C45.2555435,16.4853125 45.2425435,16.5322708 45.2425435,16.5859375 L45.2425435,16.7066875 C45.2425435,16.9750208 45.3595435,17.1628542 45.5935435,17.2701875 C45.6715435,17.3104375 45.7560435,17.3305625 45.8470435,17.3305625 C45.9640435,17.3305625 46.0712935,17.2936667 46.1687935,17.219875 C46.2662935,17.1460833 46.3410435,17.0555208 46.3930435,16.9481875 L48.0115435,13.2451875 L54.6610435,13.2451875 L56.2990435,16.9683125 C56.3510435,17.0890625 56.4257935,17.179625 56.5232935,17.24 C56.6207935,17.300375 56.7280435,17.3305625 56.8450435,17.3305625 C56.9230435,17.3305625 57.0010435,17.3104375 57.0790435,17.2701875 C57.3130435,17.1628542 57.4300435,16.9750208 57.4300435,16.7066875 L57.4300435,16.7066875 Z M54.1540435,12.0980625 L48.5185435,12.0980625 L51.3460435,5.6580625 L54.1540435,12.0980625 Z" id="Shape" fill="#FFFFFF"></path>
                            <path d="M70.1245435,7.4894375 C70.1245435,6.91252083 70.0270435,6.392625 69.8320435,5.92975 C69.6370435,5.466875 69.3672935,5.0744375 69.0227935,4.7524375 C68.6782935,4.4304375 68.2720435,4.18558333 67.8040435,4.017875 C67.3360435,3.85016667 66.8225435,3.7663125 66.2635435,3.7663125 L60.6865435,3.7663125 C60.5045435,3.7663125 60.3550435,3.8266875 60.2380435,3.9474375 C60.1210435,4.0681875 60.0625435,4.22247917 60.0625435,4.4103125 L60.0625435,16.6865625 C60.0625435,16.8743958 60.1210435,17.0286875 60.2380435,17.1494375 C60.3550435,17.2701875 60.5045435,17.3305625 60.6865435,17.3305625 C60.8685435,17.3305625 61.0245435,17.2701875 61.1545435,17.1494375 C61.2845435,17.0286875 61.3495435,16.8743958 61.3495435,16.6865625 L61.3495435,11.1723125 L66.1270435,11.1723125 C66.1270435,11.1723125 66.1335435,11.1890833 66.1465435,11.222625 C66.1595435,11.2561667 66.2115435,11.3668542 66.3025435,11.5546875 C66.3935435,11.7425208 66.5332935,12.0376875 66.7217935,12.4401875 C66.9102935,12.8426875 67.1800435,13.4128958 67.5310435,14.1508125 C67.8820435,14.8887292 68.3240435,15.8278958 68.8570435,16.9683125 C68.9870435,17.2098125 69.1755435,17.3305625 69.4225435,17.3305625 C69.5135435,17.3305625 69.5980435,17.3104375 69.6760435,17.2701875 C69.7800435,17.2165208 69.8612935,17.1360208 69.9197935,17.0286875 C69.9782935,16.9213542 70.0075435,16.8140208 70.0075435,16.7066875 C70.0075435,16.6261875 69.9880435,16.5322708 69.9490435,16.4249375 C69.3380435,15.1235208 68.8602935,14.1072083 68.5157935,13.376 C68.1712935,12.6447917 67.9177935,12.1014167 67.7552935,11.745875 C67.5927935,11.3903333 67.4952935,11.1756667 67.4627935,11.101875 C67.4302935,11.0280833 67.4140435,10.9911875 67.4140435,10.9911875 C67.8300435,10.9106875 68.2037935,10.7664583 68.5352935,10.5585 C68.8667935,10.3505417 69.1495435,10.0922708 69.3835435,9.7836875 C69.6175435,9.47510417 69.7995435,9.12627083 69.9295435,8.7371875 C70.0595435,8.34810417 70.1245435,7.9321875 70.1245435,7.4894375 L70.1245435,7.4894375 Z M68.8375435,7.5095625 C68.8375435,8.26089583 68.6100435,8.87135417 68.1550435,9.3409375 C67.7000435,9.81052083 67.1150435,10.0453125 66.4000435,10.0453125 L61.3495435,10.0453125 L61.3495435,4.9536875 L66.4000435,4.9536875 C67.1150435,4.9536875 67.7000435,5.19183333 68.1550435,5.668125 C68.6100435,6.14441667 68.8375435,6.75822917 68.8375435,7.5095625 L68.8375435,7.5095625 Z" id="Shape" fill="#FFFFFF"></path>
                            <path d="M83.6185435,16.7066875 L83.6185435,4.2291875 C83.6185435,4.05477083 83.5567935,3.90383333 83.4332935,3.776375 C83.3097935,3.64891667 83.1635435,3.5851875 82.9945435,3.5851875 C82.8255435,3.5851875 82.6825435,3.64891667 82.5655435,3.776375 C82.4485435,3.90383333 82.3900435,4.05477083 82.3900435,4.2291875 L82.3900435,14.9356875 C82.1950435,14.6673542 81.9090435,14.2648542 81.5320435,13.7281875 C81.1550435,13.1915208 80.7325435,12.5877708 80.2645435,11.9169375 C79.7965435,11.2461042 79.3057935,10.5350208 78.7922935,9.7836875 C78.2787935,9.03235417 77.7847935,8.31120833 77.3102935,7.62025 C76.8357935,6.92929167 76.4035435,6.29535417 76.0135435,5.7184375 C75.6235435,5.14152083 75.3180435,4.68870833 75.0970435,4.36 C74.8760435,4.03129167 74.7590435,3.86022917 74.7460435,3.8468125 C74.6940435,3.77972917 74.6257935,3.71935417 74.5412935,3.6656875 C74.4567935,3.61202083 74.3625435,3.5851875 74.2585435,3.5851875 C74.0765435,3.5851875 73.9270435,3.65227083 73.8100435,3.7864375 C73.6930435,3.92060417 73.6345435,4.0681875 73.6345435,4.2291875 L73.6345435,16.7066875 C73.6345435,16.8811042 73.6930435,17.0286875 73.8100435,17.1494375 C73.9270435,17.2701875 74.0700435,17.3305625 74.2390435,17.3305625 C74.4080435,17.3305625 74.5542935,17.2701875 74.6777935,17.1494375 C74.8012935,17.0286875 74.8630435,16.8811042 74.8630435,16.7066875 L74.8630435,5.9800625 L82.5265435,17.0890625 C82.6435435,17.2634792 82.8060435,17.3439792 83.0140435,17.3305625 C83.1830435,17.3171458 83.3260435,17.2534167 83.4430435,17.139375 C83.5600435,17.0253333 83.6185435,16.8811042 83.6185435,16.7066875 L83.6185435,16.7066875 Z" id="Shape" fill="#FFFFFF"></path>
                            <path d="M96.7810435,13.7080625 C96.7810435,13.1982292 96.6802935,12.752125 96.4787935,12.36975 C96.2772935,11.987375 95.9977935,11.6519583 95.6402935,11.3635 C95.2827935,11.0750417 94.8602935,10.8167708 94.3727935,10.5886875 C93.8852935,10.3606042 93.3555435,10.1459375 92.7835435,9.9446875 C92.1725435,9.73002083 91.6102935,9.5220625 91.0967935,9.3208125 C90.5832935,9.1195625 90.1380435,8.90825 89.7610435,8.686875 C89.3840435,8.4655 89.0915435,8.2139375 88.8835435,7.9321875 C88.6755435,7.6504375 88.5715435,7.31502083 88.5715435,6.9259375 C88.5715435,6.53685417 88.6625435,6.20479167 88.8445435,5.92975 C89.0265435,5.65470833 89.2735435,5.426625 89.5855435,5.2455 C89.8975435,5.064375 90.2582935,4.93020833 90.6677935,4.843 C91.0772935,4.75579167 91.5095435,4.7121875 91.9645435,4.7121875 C92.7315435,4.7121875 93.4140435,4.81952083 94.0120435,5.0341875 C94.6100435,5.24885417 95.2015435,5.55072917 95.7865435,5.9398125 C95.8905435,6.00689583 96.0010435,6.0404375 96.1180435,6.0404375 C96.3000435,6.0404375 96.4560435,5.95322917 96.5860435,5.7788125 C96.6510435,5.67147917 96.6835435,5.56414583 96.6835435,5.4568125 C96.6835435,5.2555625 96.5990435,5.08785417 96.4300435,4.9536875 C95.8970435,4.53777083 95.2242935,4.19564583 94.4117935,3.9273125 C93.5992935,3.65897917 92.7835435,3.5248125 91.9645435,3.5248125 C91.3275435,3.5248125 90.7262935,3.59189583 90.1607935,3.7260625 C89.5952935,3.86022917 89.1012935,4.06483333 88.6787935,4.339875 C88.2562935,4.61491667 87.9215435,4.96710417 87.6745435,5.3964375 C87.4275435,5.82577083 87.3040435,6.33560417 87.3040435,6.9259375 C87.3040435,7.4894375 87.4145435,7.96908333 87.6355435,8.364875 C87.8565435,8.76066667 88.1457935,9.0994375 88.5032935,9.3811875 C88.8607935,9.6629375 89.2605435,9.9044375 89.7025435,10.1056875 C90.1445435,10.3069375 90.5865435,10.4880625 91.0285435,10.6490625 C91.7175435,10.9173958 92.3382935,11.1588958 92.8907935,11.3735625 C93.4432935,11.5882292 93.9112935,11.8129583 94.2947935,12.04775 C94.6782935,12.2825417 94.9740435,12.5341042 95.1820435,12.8024375 C95.3900435,13.0707708 95.4940435,13.3927708 95.4940435,13.7684375 C95.4940435,14.2246042 95.3900435,14.6103333 95.1820435,14.925625 C94.9740435,15.2409167 94.7010435,15.4958333 94.3630435,15.690375 C94.0250435,15.8849167 93.6447935,16.0257917 93.2222935,16.113 C92.7997935,16.2002083 92.3740435,16.2438125 91.9450435,16.2438125 C91.1260435,16.2438125 90.3395435,16.0995833 89.5855435,15.811125 C88.8315435,15.5226667 88.1360435,15.0966875 87.4990435,14.5331875 C87.3690435,14.4258542 87.2325435,14.3721875 87.0895435,14.3721875 C86.9465435,14.3721875 86.8100435,14.4392708 86.6800435,14.5734375 C86.5890435,14.6807708 86.5435435,14.8082292 86.5435435,14.9558125 C86.5435435,15.1168125 86.6020435,15.2643958 86.7190435,15.3985625 C87.0050435,15.7473958 87.3657935,16.0492708 87.8012935,16.3041875 C88.2367935,16.5591042 88.6950435,16.7704167 89.1760435,16.938125 C89.6570435,17.1058333 90.1380435,17.2299375 90.6190435,17.3104375 C91.1000435,17.3909375 91.5355435,17.4311875 91.9255435,17.4311875 C92.5885435,17.4311875 93.2125435,17.3540417 93.7975435,17.19975 C94.3825435,17.0454583 94.8960435,16.8140208 95.3380435,16.5054375 C95.7800435,16.1968542 96.1310435,15.811125 96.3910435,15.34825 C96.6510435,14.885375 96.7810435,14.3386458 96.7810435,13.7080625 L96.7810435,13.7080625 Z" id="Shape" fill="#F14B4E"></path>
                            <path d="M101.266043,16.6664375 L101.266043,4.2493125 C101.266043,4.06147917 101.207543,3.90383333 101.090543,3.776375 C100.973543,3.64891667 100.824043,3.5851875 100.642043,3.5851875 C100.460043,3.5851875 100.307293,3.64891667 100.183793,3.776375 C100.060293,3.90383333 99.9985435,4.06147917 99.9985435,4.2493125 L99.9985435,16.6664375 C99.9985435,16.8542708 100.060293,17.0119167 100.183793,17.139375 C100.307293,17.2668333 100.460043,17.3305625 100.642043,17.3305625 C100.824043,17.3305625 100.973543,17.2668333 101.090543,17.139375 C101.207543,17.0119167 101.266043,16.8542708 101.266043,16.6664375 L101.266043,16.6664375 Z" id="Shape" fill="#F14B4E"></path>
                            <path d="M116.242043,14.2916875 L116.242043,10.7094375 C116.242043,10.5216042 116.180293,10.3606042 116.056793,10.2264375 C115.933293,10.0922708 115.780543,10.0251875 115.598543,10.0251875 L111.367043,10.0251875 C111.211043,10.0251875 111.077793,10.0822083 110.967293,10.19625 C110.856793,10.3102917 110.801543,10.4478125 110.801543,10.6088125 C110.801543,10.7698125 110.856793,10.9106875 110.967293,11.0314375 C111.077793,11.1521875 111.211043,11.2125625 111.367043,11.2125625 L114.955043,11.2125625 L114.955043,14.1910625 C114.500043,14.8350625 113.911793,15.3381875 113.190293,15.7004375 C112.468793,16.0626875 111.666043,16.2438125 110.782043,16.2438125 C109.989043,16.2438125 109.270793,16.0861667 108.627293,15.770875 C107.983793,15.4555833 107.434543,15.0296042 106.979543,14.4929375 C106.524543,13.9562708 106.173543,13.3391042 105.926543,12.6414375 C105.679543,11.9437708 105.556043,11.2192708 105.556043,10.4679375 C105.556043,9.71660417 105.679543,8.99545833 105.926543,8.3045 C106.173543,7.61354167 106.524543,6.99972917 106.979543,6.4630625 C107.434543,5.92639583 107.983793,5.50041667 108.627293,5.185125 C109.270793,4.86983333 109.989043,4.7121875 110.782043,4.7121875 C111.601043,4.7121875 112.303043,4.86983333 112.888043,5.185125 C113.473043,5.50041667 113.993043,5.85260417 114.448043,6.2416875 C114.552043,6.33560417 114.688543,6.3825625 114.857543,6.3825625 C115.026543,6.3825625 115.156543,6.32889583 115.247543,6.2215625 C115.338543,6.12764583 115.384043,5.99347917 115.384043,5.8190625 C115.384043,5.64464583 115.332043,5.50377083 115.228043,5.3964375 C114.019043,4.1486875 112.537043,3.5248125 110.782043,3.5248125 C109.846043,3.5248125 108.978293,3.71264583 108.178793,4.0883125 C107.379293,4.46397917 106.693543,4.97045833 106.121543,5.60775 C105.549543,6.24504167 105.101043,6.98295833 104.776043,7.8215 C104.451043,8.66004167 104.288543,9.5421875 104.288543,10.4679375 C104.288543,11.3936875 104.451043,12.2758333 104.776043,13.114375 C105.101043,13.9529167 105.549543,14.6908333 106.121543,15.328125 C106.693543,15.9654167 107.379293,16.47525 108.178793,16.857625 C108.978293,17.24 109.846043,17.4311875 110.782043,17.4311875 C111.835043,17.4311875 112.819793,17.2031042 113.736293,16.7469375 C114.652793,16.2907708 115.436043,15.6199375 116.086043,14.7344375 C116.190043,14.5868542 116.242043,14.4392708 116.242043,14.2916875 L116.242043,14.2916875 Z" id="Shape" fill="#F14B4E"></path>
                            <path d="M129.541043,16.7066875 L129.541043,4.2291875 C129.541043,4.05477083 129.479293,3.90383333 129.355793,3.776375 C129.232293,3.64891667 129.086043,3.5851875 128.917043,3.5851875 C128.748043,3.5851875 128.605043,3.64891667 128.488043,3.776375 C128.371043,3.90383333 128.312543,4.05477083 128.312543,4.2291875 L128.312543,14.9356875 C128.117543,14.6673542 127.831543,14.2648542 127.454543,13.7281875 C127.077543,13.1915208 126.655043,12.5877708 126.187043,11.9169375 C125.719043,11.2461042 125.228293,10.5350208 124.714793,9.7836875 C124.201293,9.03235417 123.707293,8.31120833 123.232793,7.62025 C122.758293,6.92929167 122.326043,6.29535417 121.936043,5.7184375 C121.546043,5.14152083 121.240543,4.68870833 121.019543,4.36 C120.798543,4.03129167 120.681543,3.86022917 120.668543,3.8468125 C120.616543,3.77972917 120.548293,3.71935417 120.463793,3.6656875 C120.379293,3.61202083 120.285043,3.5851875 120.181043,3.5851875 C119.999043,3.5851875 119.849543,3.65227083 119.732543,3.7864375 C119.615543,3.92060417 119.557043,4.0681875 119.557043,4.2291875 L119.557043,16.7066875 C119.557043,16.8811042 119.615543,17.0286875 119.732543,17.1494375 C119.849543,17.2701875 119.992543,17.3305625 120.161543,17.3305625 C120.330543,17.3305625 120.476793,17.2701875 120.600293,17.1494375 C120.723793,17.0286875 120.785543,16.8811042 120.785543,16.7066875 L120.785543,5.9800625 L128.449043,17.0890625 C128.566043,17.2634792 128.728543,17.3439792 128.936543,17.3305625 C129.105543,17.3171458 129.248543,17.2534167 129.365543,17.139375 C129.482543,17.0253333 129.541043,16.8811042 129.541043,16.7066875 L129.541043,16.7066875 Z" id="Shape" fill="#F14B4E"></path>
                            <path d="M144.361043,16.7066875 L144.361043,16.5859375 C144.361043,16.5322708 144.348043,16.4853125 144.322043,16.4450625 L138.823043,3.9675625 C138.797043,3.90047917 138.735293,3.81997917 138.637793,3.7260625 C138.540293,3.63214583 138.420043,3.5851875 138.277043,3.5851875 C138.134043,3.5851875 138.010543,3.63214583 137.906543,3.7260625 C137.802543,3.81997917 137.737543,3.90047917 137.711543,3.9675625 L132.212543,16.4450625 C132.186543,16.4853125 132.173543,16.5322708 132.173543,16.5859375 L132.173543,16.7066875 C132.173543,16.9750208 132.290543,17.1628542 132.524543,17.2701875 C132.602543,17.3104375 132.687043,17.3305625 132.778043,17.3305625 C132.895043,17.3305625 133.002293,17.2936667 133.099793,17.219875 C133.197293,17.1460833 133.272043,17.0555208 133.324043,16.9481875 L134.942543,13.2451875 L141.592043,13.2451875 L143.230043,16.9683125 C143.282043,17.0890625 143.356793,17.179625 143.454293,17.24 C143.551793,17.300375 143.659043,17.3305625 143.776043,17.3305625 C143.854043,17.3305625 143.932043,17.3104375 144.010043,17.2701875 C144.244043,17.1628542 144.361043,16.9750208 144.361043,16.7066875 L144.361043,16.7066875 Z M141.085043,12.0980625 L135.449543,12.0980625 L138.277043,5.6580625 L141.085043,12.0980625 Z" id="Shape" fill="#F14B4E"></path>
                            <path d="M155.729543,16.5456875 C155.729543,16.3712708 155.674293,16.2303958 155.563793,16.1230625 C155.453293,16.0157292 155.313543,15.9620625 155.144543,15.9620625 L148.280543,15.9620625 L148.280543,4.2493125 C148.280543,4.06147917 148.218793,3.90383333 148.095293,3.776375 C147.971793,3.64891667 147.819043,3.5851875 147.637043,3.5851875 C147.455043,3.5851875 147.302293,3.64891667 147.178793,3.776375 C147.055293,3.90383333 146.993543,4.06147917 146.993543,4.2493125 L146.993543,16.5054375 C146.993543,16.6932708 147.055293,16.8509167 147.178793,16.978375 C147.302293,17.1058333 147.455043,17.1695625 147.637043,17.1695625 L155.144543,17.1695625 C155.313543,17.1695625 155.453293,17.1091875 155.563793,16.9884375 C155.674293,16.8676875 155.729543,16.7201042 155.729543,16.5456875 L155.729543,16.5456875 Z" id="Shape" fill="#F14B4E"></path>
                            <g id="Shape-+-Shape-+-Shape-+-Shape">
                                <path d="M10.3159239,20.9619375 C4.78216304,20.9619375 0.296315217,16.3323125 0.296315217,10.6211875 C0.296315217,4.9100625 4.78216304,0.2804375 10.3159239,0.2804375 C15.8496848,0.2804375 20.3355326,4.9100625 20.3355326,10.6211875 C20.3355326,16.3323125 15.8496848,20.9619375 10.3159239,20.9619375 L10.3159239,20.9619375 Z" id="Shape" fill="#F14B4E"></path>
                                <g id="Shape-+-Shape-+-Shape" transform="translate(2.967391, 3.500000)" fill="#EBE9E1">
                                    <path d="M3.54009783,10.1605 C3.63378261,10.1605 10.2086739,10.241875 10.5719674,10.2055625 C11.2625217,10.6155 12.5122174,12.898375 12.4075109,13.6539375 C11.0060543,13.7676875 2.50363043,13.8245625 2.51677174,13.7781875 C2.72152174,13.06725 3.54009783,10.1605 3.54009783,10.1605 L3.54009783,10.1605 Z" id="Shape"></path>
                                    <path d="M1.07461957,0.319375 C0.956347826,0.2585625 2.30693478,0.2275 4.69017391,0.2541875 C5.14333696,0.3014375 5.09628261,0.828625 5.12765217,1.360625 C5.11493478,3.6351875 5.03566304,11.8671875 5.03566304,11.8671875 C5.03566304,11.8671875 5.03651087,13.7344375 6.02083696,13.783 C7.00516304,13.831125 2.87794565,13.7935 2.5316087,13.7781875 C2.03393478,13.7773125 1.26241304,13.293875 1.23909783,12.012 C1.2153587,11.407375 1.16872826,0.3679375 1.07461957,0.319375 L1.07461957,0.319375 Z" id="Shape"></path>
                                    <path d="M8.95222491,7.97256076 C10.6350043,9.49651437 12.5901266,11.1606714 12.8780543,13.63775 C19.06125,5.942125 8.70420652,5.249125 9.1781413,0.2445625 C4.66782529,3.87150827 6.52724569,5.77645836 8.95222491,7.97256076 Z" id="Shape"></path>
                                    <path d="M2.42775,0.25025 L2.98519565,0.23625 L2.96188043,0.23625 C2.50786957,0.2743125 1.52778261,0.2139375 1.16915217,0.2445625 C0.604076087,0.3443125 0.362021739,0.5928125 0.0932608696,2.694125 C2.53076087,2.6718125 2.11702174,2.6718125 3.45234783,2.7050625 C3.53077174,1.71675 2.96188043,0.23625 2.96188043,0.23625 L2.42775,0.25025 Z" id="Shape"></path>
                                    <path d="M9.18026087,0.2445625 L13.2277826,0.2445625 C11.3562065,2.7050625 9.77119565,4.8943125 9.44308696,5.2329375 C9.11497826,5.5715625 9.08657609,0.4405625 9.18026087,0.2445625 L9.18026087,0.2445625 Z" id="Shape"></path>
                                </g>
                            </g>
                        </g>
                    </g>
                </g>
            </g>
        </g>
    </g>
</svg>