<svg xmlns="http://www.w3.org/2000/svg" viewBox="0 0 155.71 32.17"><defs><style>.cls-1{fill:#fff;}.cls-2{fill:#f14b4e;}</style></defs><title>ls-logo-white</title><g id="Layer_2" data-name="Layer 2"><g id="Layer_1-2" data-name="Layer 1"><g id="Page-1"><g id="home-copy"><g id="hero-copy"><g id="head"><g id="menu"><g id="logo"><path id="Shape" class="cls-1" d="M31.9,16.27a.56.56,0,0,0-.17-.42.58.58,0,0,0-.42-.16H24.45V4a.65.65,0,0,0-.19-.47.64.64,0,0,0-.92,0,.65.65,0,0,0-.19.47V16.23a.65.65,0,0,0,.19.47.61.61,0,0,0,.46.19h7.51a.54.54,0,0,0,.42-.18.63.63,0,0,0,.17-.44Z"/><path id="Shape-2" data-name="Shape" class="cls-1" d="M43.58,16.29a.6.6,0,0,0-.17-.43.56.56,0,0,0-.42-.17H35.84V10.51h3.88a.56.56,0,0,0,.42-.17.65.65,0,0,0,0-.87.56.56,0,0,0-.42-.17H35.84V4.69H42.7a.59.59,0,0,0,.43-.17.62.62,0,0,0,0-.87.59.59,0,0,0-.43-.17H35.22a.63.63,0,0,0-.46.18.62.62,0,0,0-.19.46v12.1a.65.65,0,0,0,.19.47.61.61,0,0,0,.46.19H43a.56.56,0,0,0,.42-.17.6.6,0,0,0,.17-.43Z"/><path id="Shape-3" data-name="Shape" class="cls-1" d="M57.13,16.43v-.12a.25.25,0,0,0,0-.14L51.6,3.69a.75.75,0,0,0-.19-.24A.5.5,0,0,0,51,3.3a.53.53,0,0,0-.37.14.72.72,0,0,0-.19.24L45,16.16a.25.25,0,0,0,0,.14v.12a.57.57,0,0,0,.35.56.54.54,0,0,0,.25.06.52.52,0,0,0,.32-.11.74.74,0,0,0,.22-.27L47.72,13h6.65L56,16.69a.58.58,0,0,0,.22.27.6.6,0,0,0,.32.09.51.51,0,0,0,.23-.06.57.57,0,0,0,.35-.56Zm-3.28-4.61H48.22L51,5.38Z"/><path id="Shape-4" data-name="Shape" class="cls-1" d="M69.83,7.21a4,4,0,0,0-.29-1.56,3.39,3.39,0,0,0-.81-1.18,3.48,3.48,0,0,0-1.22-.73A4.54,4.54,0,0,0,66,3.49H60.39a.6.6,0,0,0-.45.18.64.64,0,0,0-.18.46V16.41a.64.64,0,0,0,.18.46.6.6,0,0,0,.45.18.66.66,0,0,0,.47-.18.6.6,0,0,0,.19-.46V10.89h4.78l0,.05.16.33.42.89.81,1.71,1.33,2.82a.61.61,0,0,0,.57.36.54.54,0,0,0,.25-.06.57.57,0,0,0,.24-.24.67.67,0,0,0,.09-.32.84.84,0,0,0-.06-.28l-1.43-3-.76-1.63-.29-.64,0-.11a3.25,3.25,0,0,0,1.12-.43,3.17,3.17,0,0,0,.85-.77,3.61,3.61,0,0,0,.55-1,3.91,3.91,0,0,0,.19-1.25Zm-1.29,0a2.52,2.52,0,0,1-.68,1.83,2.34,2.34,0,0,1-1.75.7H61.05V4.67H66.1a2.32,2.32,0,0,1,1.75.71,2.56,2.56,0,0,1,.68,1.84Z"/><path id="Shape-5" data-name="Shape" class="cls-1" d="M83.32,16.43V3.95a.63.63,0,0,0-.19-.45.59.59,0,0,0-.44-.19.56.56,0,0,0-.43.19.65.65,0,0,0-.18.45V14.66l-.86-1.21L80,11.64,78.5,9.5,77,7.34l-1.3-1.9L74.8,4.08l-.35-.51a.79.79,0,0,0-.2-.18A.52.52,0,0,0,74,3.3a.57.57,0,0,0-.45.2.66.66,0,0,0-.18.44V16.43a.61.61,0,0,0,.18.44.57.57,0,0,0,.43.18.61.61,0,0,0,.44-.18.6.6,0,0,0,.19-.44V5.7l7.66,11.11a.51.51,0,0,0,.49.24.67.67,0,0,0,.43-.19.58.58,0,0,0,.18-.43Z"/><path id="Shape-6" data-name="Shape" class="cls-2" d="M96.48,13.43a2.83,2.83,0,0,0-.3-1.34,3.21,3.21,0,0,0-.84-1,6.18,6.18,0,0,0-1.27-.77q-.73-.34-1.59-.64T90.8,9a9.48,9.48,0,0,1-1.34-.63,2.88,2.88,0,0,1-.88-.75,1.65,1.65,0,0,1-.31-1,1.76,1.76,0,0,1,.27-1A2.19,2.19,0,0,1,89.29,5a3.66,3.66,0,0,1,1.08-.4,6.21,6.21,0,0,1,1.3-.13,6,6,0,0,1,2,.32,8.23,8.23,0,0,1,1.77.91.6.6,0,0,0,.33.1.57.57,0,0,0,.47-.26.61.61,0,0,0-.16-.83,6.64,6.64,0,0,0-2-1,7.86,7.86,0,0,0-4.25-.2,4.67,4.67,0,0,0-1.48.61,3.08,3.08,0,0,0-1,1.06A3,3,0,0,0,87,6.65a2.91,2.91,0,0,0,.33,1.44,3.38,3.38,0,0,0,.87,1,5.83,5.83,0,0,0,1.2.72q.66.3,1.33.54l1.86.72a8.83,8.83,0,0,1,1.4.67,3.26,3.26,0,0,1,.89.75,1.53,1.53,0,0,1,.31,1,2.06,2.06,0,0,1-.31,1.16,2.4,2.4,0,0,1-.82.76,3.82,3.82,0,0,1-1.14.42,6.3,6.3,0,0,1-1.28.13,6.55,6.55,0,0,1-2.36-.43,6.8,6.8,0,0,1-2.09-1.28.64.64,0,0,0-.41-.16.57.57,0,0,0-.55.58.66.66,0,0,0,.18.44A4,4,0,0,0,87.5,16a7.79,7.79,0,0,0,1.37.63,8.78,8.78,0,0,0,1.44.37,8,8,0,0,0,1.31.12,7.32,7.32,0,0,0,1.87-.23A4.81,4.81,0,0,0,95,16.23a3.47,3.47,0,0,0,1.05-1.16,3.3,3.3,0,0,0,.39-1.64Z"/><path id="Shape-7" data-name="Shape" class="cls-2" d="M101,16.39V4a.67.67,0,0,0-.18-.47.58.58,0,0,0-.45-.19.61.61,0,0,0-.46.19A.65.65,0,0,0,99.7,4V16.39a.65.65,0,0,0,.19.47.61.61,0,0,0,.46.19.58.58,0,0,0,.45-.19.67.67,0,0,0,.18-.47Z"/><path id="Shape-8" data-name="Shape" class="cls-2" d="M115.95,14V10.43a.69.69,0,0,0-.19-.48.6.6,0,0,0-.46-.2h-4.23a.54.54,0,0,0-.4.17.57.57,0,0,0-.17.41.61.61,0,0,0,.17.42.52.52,0,0,0,.4.18h3.59v3a4.71,4.71,0,0,1-1.76,1.51,5.29,5.29,0,0,1-2.41.54,4.83,4.83,0,0,1-2.15-.47,5,5,0,0,1-1.65-1.28,5.86,5.86,0,0,1-1.05-1.85,6.46,6.46,0,0,1-.37-2.17A6.38,6.38,0,0,1,105.63,8a5.88,5.88,0,0,1,1.05-1.84,5,5,0,0,1,1.65-1.28,4.83,4.83,0,0,1,2.15-.47,4.38,4.38,0,0,1,2.11.47A8.85,8.85,0,0,1,114.15,6a.59.59,0,0,0,.41.14.48.48,0,0,0,.39-.16.56.56,0,0,0,.14-.4.58.58,0,0,0-.16-.42,6,6,0,0,0-4.45-1.87,6,6,0,0,0-2.6.56,6.37,6.37,0,0,0-2.06,1.52,7.15,7.15,0,0,0-1.35,2.21,7.43,7.43,0,0,0,0,5.29A7.15,7.15,0,0,0,105.83,15a6.5,6.5,0,0,0,2.06,1.53,6,6,0,0,0,2.6.57,6.43,6.43,0,0,0,5.3-2.7.77.77,0,0,0,.16-.44Z"/><path id="Shape-9" data-name="Shape" class="cls-2" d="M129.24,16.43V3.95a.63.63,0,0,0-.19-.45.59.59,0,0,0-.44-.19.56.56,0,0,0-.43.19.65.65,0,0,0-.18.45V14.66l-.86-1.21-1.27-1.81L124.42,9.5l-1.48-2.16-1.3-1.9-.92-1.36-.35-.51a.79.79,0,0,0-.2-.18.52.52,0,0,0-.28-.08.57.57,0,0,0-.45.2.66.66,0,0,0-.18.44V16.43a.61.61,0,0,0,.18.44.57.57,0,0,0,.43.18.61.61,0,0,0,.44-.18.6.6,0,0,0,.19-.44V5.7l7.66,11.11a.51.51,0,0,0,.49.24.67.67,0,0,0,.43-.19.58.58,0,0,0,.18-.43Z"/><path id="Shape-10" data-name="Shape" class="cls-2" d="M144.06,16.43v-.12a.25.25,0,0,0,0-.14l-5.5-12.48a.75.75,0,0,0-.19-.24A.5.5,0,0,0,138,3.3a.53.53,0,0,0-.37.14.72.72,0,0,0-.19.24l-5.5,12.48a.25.25,0,0,0,0,.14v.12a.57.57,0,0,0,.35.56.54.54,0,0,0,.25.06.52.52,0,0,0,.32-.11.74.74,0,0,0,.22-.27l1.62-3.7h6.65l1.64,3.72a.58.58,0,0,0,.22.27.6.6,0,0,0,.32.09.51.51,0,0,0,.23-.06.57.57,0,0,0,.35-.56Zm-3.28-4.61h-5.64L138,5.38Z"/><path id="Shape-11" data-name="Shape" class="cls-2" d="M155.43,16.27a.56.56,0,0,0-.17-.42.58.58,0,0,0-.42-.16H148V4a.65.65,0,0,0-.19-.47.64.64,0,0,0-.92,0,.65.65,0,0,0-.19.47V16.23a.65.65,0,0,0,.19.47.61.61,0,0,0,.46.19h7.51a.54.54,0,0,0,.42-.18.63.63,0,0,0,.17-.44Z"/><g id="Shape-_-Shape-_-Shape-_-Shape" data-name="Shape-+-Shape-+-Shape-+-Shape"><path id="Shape-12" data-name="Shape" class="cls-2" d="M10,20.68A10.18,10.18,0,0,1,0,10.34,10.18,10.18,0,0,1,10,0,10.18,10.18,0,0,1,20,10.34,10.18,10.18,0,0,1,10,20.68Z"/><g id="Shape-_-Shape-_-Shape" data-name="Shape-+-Shape-+-Shape"><path id="Shape-13" data-name="Shape" class="cls-1" d="M6.21,13.38c.09,0,6.67.08,7,0a6,6,0,0,1,1.84,3.45c-1.4.11-9.9.17-9.89.12.2-.71,1-3.62,1-3.62Z"/><path id="Shape-14" data-name="Shape" class="cls-1" d="M3.75,3.54a24.08,24.08,0,0,1,3.62-.07c.45,0,.41.57.44,1.11,0,2.27-.09,10.51-.09,10.51s0,1.87,1,1.92S5.55,17,5.2,17c-.5,0-1.27-.48-1.29-1.77,0-.6-.07-11.64-.16-11.69Z"/><path id="Shape-15" data-name="Shape" class="cls-1" d="M11.62,11.19c1.68,1.52,3.64,3.19,3.93,5.67,6.18-7.7-4.17-8.39-3.7-13.39C7.34,7.09,9.2,9,11.62,11.19Z"/><path id="Shape-16" data-name="Shape" class="cls-1" d="M5.1,3.47h.53c-.45,0-1.43,0-1.79,0-.57.1-.81.35-1.08,2.45,2.44,0,2,0,3.36,0a7.26,7.26,0,0,0-.49-2.47Z"/><path id="Shape-17" data-name="Shape" class="cls-1" d="M11.85,3.46h4c-1.87,2.46-3.46,4.65-3.78,5s-.36-4.79-.26-5Z"/></g></g></g></g></g></g></g></g><path class="cls-1" d="M23.23,29.77a.23.23,0,0,1-.06-.17V22.79a.24.24,0,0,1,.06-.17.22.22,0,0,1,.17-.07h.19a.22.22,0,0,1,.24.24v3h4v-3a.24.24,0,0,1,.06-.17.22.22,0,0,1,.17-.07h.19a.22.22,0,0,1,.24.24v6.82a.22.22,0,0,1-.07.17.24.24,0,0,1-.17.06h-.19a.22.22,0,0,1-.23-.23V26.45h-4V29.6a.22.22,0,0,1-.07.17.24.24,0,0,1-.17.06h-.19A.22.22,0,0,1,23.23,29.77Z"/><path class="cls-1" d="M30.78,29.29a2.78,2.78,0,0,1-.67-1.74v-.83A2.82,2.82,0,0,1,30.78,25a2.06,2.06,0,0,1,1.6-.67,2.1,2.1,0,0,1,1.69.72,2.94,2.94,0,0,1,.61,2v.15a.22.22,0,0,1-.07.17.25.25,0,0,1-.15,0H30.74v.1a2.31,2.31,0,0,0,.22.91,1.71,1.71,0,0,0,.56.67,1.45,1.45,0,0,0,.85.26,1.73,1.73,0,0,0,.93-.22,1.7,1.7,0,0,0,.52-.45.78.78,0,0,1,.14-.15.34.34,0,0,1,.17,0h.17a.24.24,0,0,1,.15.05.17.17,0,0,1,.06.13.87.87,0,0,1-.28.52,2.29,2.29,0,0,1-.77.53,2.62,2.62,0,0,1-1.1.22A2.07,2.07,0,0,1,30.78,29.29ZM34,26.81v0a1.94,1.94,0,0,0-.45-1.34,1.53,1.53,0,0,0-1.21-.52,1.49,1.49,0,0,0-1.2.52,2,2,0,0,0-.44,1.34v0Z"/><path class="cls-1" d="M36.18,29.77a.23.23,0,0,1-.06-.17v-7a.22.22,0,0,1,.2-.23h.2a.22.22,0,0,1,.23.23v7a.22.22,0,0,1-.2.23h-.2A.22.22,0,0,1,36.18,29.77Z"/><path class="cls-1" d="M38.57,31.75a.23.23,0,0,1-.06-.17V24.67a.23.23,0,0,1,.06-.17.22.22,0,0,1,.17-.06h.17a.22.22,0,0,1,.26.23v.49a2,2,0,0,1,1.75-.82,1.94,1.94,0,0,1,1.61.69,3,3,0,0,1,.56,1.75v.69a3,3,0,0,1-.56,1.75,1.94,1.94,0,0,1-1.66.71,2.05,2.05,0,0,1-1.7-.82v2.47a.22.22,0,0,1-.2.23h-.2A.23.23,0,0,1,38.57,31.75Zm3.5-3a2.45,2.45,0,0,0,.42-1.38v-.29a3,3,0,0,0-.38-1.59,1.38,1.38,0,0,0-1.29-.62,1.46,1.46,0,0,0-1.24.54,2.23,2.23,0,0,0-.42,1.28v.81a2.1,2.1,0,0,0,.19.85,1.65,1.65,0,0,0,.56.67,1.59,1.59,0,0,0,.93.26A1.43,1.43,0,0,0,42.07,28.8Z"/><path class="cls-1" d="M44.55,23.24a.22.22,0,0,1-.06-.17v-.42a.24.24,0,0,1,.06-.17.22.22,0,0,1,.17-.07h.4a.24.24,0,0,1,.24.23s0,0,0,0v.4a.22.22,0,0,1-.07.17.24.24,0,0,1-.17.06h-.4A.22.22,0,0,1,44.55,23.24Zm.11,6.53a.23.23,0,0,1-.06-.17V24.67a.23.23,0,0,1,.06-.17.22.22,0,0,1,.17-.06H45a.22.22,0,0,1,.17.06.23.23,0,0,1,0,.17v5a.23.23,0,0,1-.06.17.22.22,0,0,1-.17.06h-.17A.22.22,0,0,1,44.67,29.77Z"/><path class="cls-1" d="M47,29.77A.23.23,0,0,1,47,29.6V24.67A.23.23,0,0,1,47,24.5a.22.22,0,0,1,.17-.06h.17a.22.22,0,0,1,.17.06.23.23,0,0,1,.06.17v.49a2.14,2.14,0,0,1,.71-.61,2.23,2.23,0,0,1,1-.21,2,2,0,0,1,1.57.67,2.51,2.51,0,0,1,.55,1.68v3a.23.23,0,0,1-.06.17.22.22,0,0,1-.17.06h-.17a.22.22,0,0,1-.23-.23v-3a1.92,1.92,0,0,0-.41-1.34,1.49,1.49,0,0,0-1.18-.47,1.57,1.57,0,0,0-1.2.47,1.82,1.82,0,0,0-.45,1.34v2.9a.23.23,0,0,1-.06.17.22.22,0,0,1-.17.06h-.17A.22.22,0,0,1,47,29.77Z"/><path class="cls-1" d="M53.89,31.85a1.71,1.71,0,0,1-.67-.67,1.34,1.34,0,0,1-.19-.63.2.2,0,0,1,.07-.15.23.23,0,0,1,.16-.06h.15a.23.23,0,0,1,.15,0,.38.38,0,0,1,.1.17,1.41,1.41,0,0,0,1.5.95,2,2,0,0,0,1.34-.37,1.68,1.68,0,0,0,.43-1.34v-.67a2,2,0,0,1-1.75.82,1.92,1.92,0,0,1-1.66-.73,3.11,3.11,0,0,1-.56-1.79v-.58a3.11,3.11,0,0,1,.56-1.79,1.92,1.92,0,0,1,1.66-.73,2.05,2.05,0,0,1,1.75.82v-.47a.25.25,0,0,1,.06-.17.22.22,0,0,1,.17-.07h.17a.23.23,0,0,1,.24.24v5.07A2.69,2.69,0,0,1,57,31.49a2.22,2.22,0,0,1-1.81.67A2.6,2.6,0,0,1,53.89,31.85Zm2.55-3.06a2.23,2.23,0,0,0,.45-1.28q0-.1,0-.38t0-.38a2.23,2.23,0,0,0-.45-1.28,1.46,1.46,0,0,0-1.24-.54,1.43,1.43,0,0,0-1.24.54,2.44,2.44,0,0,0-.42,1.38v.58A2.44,2.44,0,0,0,54,28.8a1.43,1.43,0,0,0,1.24.54A1.46,1.46,0,0,0,56.44,28.79Z"/><path class="cls-1" d="M62.5,31.75a.2.2,0,0,1-.06-.15.75.75,0,0,1,.06-.22l.8-1.88-2-4.71a.73.73,0,0,1-.06-.21.22.22,0,0,1,.21-.21h.22a.25.25,0,0,1,.24.15l1.77,4.15,1.79-4.12a.26.26,0,0,1,.24-.15h.21a.22.22,0,0,1,.21.21.71.71,0,0,1-.06.21l-3,6.82a.25.25,0,0,1-.24.15h-.21A.2.2,0,0,1,62.5,31.75Z"/><path class="cls-1" d="M67.52,29.28a2.57,2.57,0,0,1-.63-1.71v-.87A2.57,2.57,0,0,1,67.52,25a2.47,2.47,0,0,1,3.36,0,2.57,2.57,0,0,1,.63,1.71v.87a2.57,2.57,0,0,1-.63,1.71A2.47,2.47,0,0,1,67.52,29.28Zm2.88-.42a2,2,0,0,0,.48-1.34v-.77a2,2,0,0,0-.48-1.34,1.73,1.73,0,0,0-2.39,0,2,2,0,0,0-.48,1.34v.77A2,2,0,0,0,68,28.86,1.73,1.73,0,0,0,70.4,28.86Z"/><path class="cls-1" d="M73.46,29.29a2.57,2.57,0,0,1-.53-1.69V24.67A.23.23,0,0,1,73,24.5a.22.22,0,0,1,.17-.06h.17a.22.22,0,0,1,.23.23v2.9q0,1.78,1.55,1.78a1.55,1.55,0,0,0,1.19-.47,1.84,1.84,0,0,0,.44-1.3V24.67a.23.23,0,0,1,.06-.17.22.22,0,0,1,.17-.06h.17a.22.22,0,0,1,.17.06.23.23,0,0,1,.06.17v5a.23.23,0,0,1-.06.17.22.22,0,0,1-.17.06H77a.22.22,0,0,1-.17-.06.23.23,0,0,1-.06-.17v-.49a2.14,2.14,0,0,1-.71.61A2.23,2.23,0,0,1,75,30,1.9,1.9,0,0,1,73.46,29.29Z"/><path class="cls-1" d="M82,31.75a.23.23,0,0,1-.06-.17V24.67a.21.21,0,0,1,.23-.23h.17a.21.21,0,0,1,.23.23v.49a2,2,0,0,1,1.75-.82,1.94,1.94,0,0,1,1.66.71,3,3,0,0,1,.56,1.75v.69a3,3,0,0,1-.56,1.75,1.94,1.94,0,0,1-1.66.71,2.05,2.05,0,0,1-1.75-.82v2.47a.22.22,0,0,1-.2.23h-.2A.23.23,0,0,1,82,31.75Zm3.5-3a2.44,2.44,0,0,0,.42-1.38v-.29a3,3,0,0,0-.38-1.59,1.38,1.38,0,0,0-1.29-.62,1.46,1.46,0,0,0-1.24.54,2.23,2.23,0,0,0-.45,1.28v.81a2.1,2.1,0,0,0,.19.85,1.65,1.65,0,0,0,.56.67,1.59,1.59,0,0,0,.93.26A1.42,1.42,0,0,0,85.46,28.8Z"/><path class="cls-1" d="M88.53,29.73a1.8,1.8,0,0,1-.67-.56,1.3,1.3,0,0,1-.26-.78,1.34,1.34,0,0,1,.56-1.12,3,3,0,0,1,1.51-.56l1.65-.23v-.36a1.11,1.11,0,0,0-.35-.88,1.58,1.58,0,0,0-1.07-.31,1.64,1.64,0,0,0-.87.21.93.93,0,0,0-.43.5.38.38,0,0,1-.1.17.23.23,0,0,1-.15,0H88.2a.23.23,0,0,1-.23-.23,1,1,0,0,1,.21-.54,1.72,1.72,0,0,1,.67-.54,2.3,2.3,0,0,1,1.08-.23,2,2,0,0,1,1.58.53A1.88,1.88,0,0,1,92,26.13V29.6a.21.21,0,0,1-.23.23h-.17a.21.21,0,0,1-.23-.23v-.49a1.82,1.82,0,0,1-.67.58,2.46,2.46,0,0,1-1.17.24A2.09,2.09,0,0,1,88.53,29.73Zm2.28-.89a2,2,0,0,0,.49-1.44V27L90,27.23a3.21,3.21,0,0,0-1.29.4.83.83,0,0,0,0,1.45,1.81,1.81,0,0,0,2.18-.24Z"/><path class="cls-1" d="M94.21,29.71a2,2,0,0,1-.67-.52.85.85,0,0,1-.24-.47.18.18,0,0,1,.07-.15.25.25,0,0,1,.15-.06h.1a.24.24,0,0,1,.12,0,.39.39,0,0,1,.11.11,1.69,1.69,0,0,0,.56.5,1.87,1.87,0,0,0,.9.18,2,2,0,0,0,1-.24.78.78,0,0,0,.4-.67.67.67,0,0,0-.16-.46,1.3,1.3,0,0,0-.52-.31,10.43,10.43,0,0,0-1.07-.3,2.48,2.48,0,0,1-1.26-.57,1.3,1.3,0,0,1-.34-.93,1.34,1.34,0,0,1,.22-.73,1.57,1.57,0,0,1,.63-.56,2.18,2.18,0,0,1,1-.22,2.37,2.37,0,0,1,1.06.22A1.8,1.8,0,0,1,97,25a.85.85,0,0,1,.22.46.19.19,0,0,1-.07.15.24.24,0,0,1-.16.06h-.15a.26.26,0,0,1-.23-.13,1.54,1.54,0,0,0-.47-.47,1.65,1.65,0,0,0-.83-.16,1.44,1.44,0,0,0-.91.25.8.8,0,0,0-.31.67.67.67,0,0,0,.13.42,1.11,1.11,0,0,0,.47.31,6.5,6.5,0,0,0,1,.29,3,3,0,0,1,1.34.58,1.25,1.25,0,0,1,.4,1,1.34,1.34,0,0,1-.24.78,1.62,1.62,0,0,1-.71.56,2.76,2.76,0,0,1-1.12.21A2.56,2.56,0,0,1,94.21,29.71Z"/><path class="cls-1" d="M99.38,29.71a2,2,0,0,1-.67-.52.85.85,0,0,1-.24-.47.18.18,0,0,1,.07-.15.25.25,0,0,1,.15-.06h.15a.24.24,0,0,1,.12,0,.39.39,0,0,1,.11.11,1.69,1.69,0,0,0,.56.5,1.87,1.87,0,0,0,.9.18,2,2,0,0,0,1-.24.78.78,0,0,0,.4-.67.67.67,0,0,0-.16-.46,1.3,1.3,0,0,0-.52-.31,10.43,10.43,0,0,0-1.07-.3A2.48,2.48,0,0,1,99,26.76a1.3,1.3,0,0,1-.34-.93,1.34,1.34,0,0,1,.22-.73,1.57,1.57,0,0,1,.63-.56,2.18,2.18,0,0,1,1-.22,2.37,2.37,0,0,1,1.06.22,1.8,1.8,0,0,1,.67.5.85.85,0,0,1,.22.46.19.19,0,0,1-.07.15.24.24,0,0,1-.16.06h-.15a.26.26,0,0,1-.23-.13,1.54,1.54,0,0,0-.47-.47,1.65,1.65,0,0,0-.83-.16,1.44,1.44,0,0,0-.91.25.8.8,0,0,0-.31.67.67.67,0,0,0,.13.42,1.11,1.11,0,0,0,.47.31,6.5,6.5,0,0,0,1,.29,3,3,0,0,1,1.34.58,1.25,1.25,0,0,1,.4,1,1.34,1.34,0,0,1-.28.75,1.62,1.62,0,0,1-.71.56,2.76,2.76,0,0,1-1.12.21A2.56,2.56,0,0,1,99.38,29.71Z"/><path class="cls-1" d="M107.2,31.75a.2.2,0,0,1-.06-.15.73.73,0,0,1,.06-.21l.8-1.88-2-4.71a.71.71,0,0,1-.06-.21.22.22,0,0,1,.21-.21h.27a.25.25,0,0,1,.24.15l1.75,4.12,1.79-4.12a.26.26,0,0,1,.24-.15h.21a.22.22,0,0,1,.21.21.71.71,0,0,1-.06.21l-3,6.82a.25.25,0,0,1-.24.15h-.21A.2.2,0,0,1,107.2,31.75Z"/><path class="cls-1" d="M112.23,29.28a2.57,2.57,0,0,1-.63-1.71v-.87a2.57,2.57,0,0,1,.63-1.71,2.47,2.47,0,0,1,3.36,0,2.57,2.57,0,0,1,.63,1.71v.87a2.57,2.57,0,0,1-.63,1.71A2.47,2.47,0,0,1,112.23,29.28Zm2.87-.42a2,2,0,0,0,.48-1.34v-.77a2,2,0,0,0-.48-1.34,1.73,1.73,0,0,0-2.39,0,2,2,0,0,0-.48,1.34v.77a2,2,0,0,0,.48,1.34A1.73,1.73,0,0,0,115.1,28.86Z"/><path class="cls-1" d="M118.19,29.29a2.57,2.57,0,0,1-.53-1.69V24.67a.21.21,0,0,1,.23-.23h.17a.21.21,0,0,1,.23.23v2.9q0,1.78,1.55,1.78a1.55,1.55,0,0,0,1.19-.47,1.84,1.84,0,0,0,.44-1.3V24.67a.22.22,0,0,1,.2-.23h.19a.22.22,0,0,1,.17.06.23.23,0,0,1,.06.17v5a.21.21,0,0,1-.23.23h-.17a.22.22,0,0,1-.23-.23v-.49a2.15,2.15,0,0,1-.71.61,2.22,2.22,0,0,1-1,.21A1.9,1.9,0,0,1,118.19,29.29Z"/><path class="cls-1" d="M123.91,29.77a.22.22,0,0,1-.06-.17V24.67a.24.24,0,0,1,.06-.17.22.22,0,0,1,.17-.07h.17a.23.23,0,0,1,.24.24v.48a1.45,1.45,0,0,1,1.41-.73h.38a.22.22,0,0,1,.23.23v.15a.22.22,0,0,1-.06.17.23.23,0,0,1-.17.06h-.45a1.26,1.26,0,0,0-1.34,1.34V29.6a.22.22,0,0,1-.07.17.24.24,0,0,1-.17.06h-.17A.22.22,0,0,1,123.91,29.77Z"/><path class="cls-1" d="M129.21,29.77a.19.19,0,0,1-.06-.15v-.11l2.64-6.76a.3.3,0,0,1,.3-.21h.36a.3.3,0,0,1,.3.21l2.64,6.76v.11a.22.22,0,0,1-.21.21H135a.22.22,0,0,1-.15-.05.29.29,0,0,1-.08-.11L134.05,28h-3.68l-.67,1.67a.29.29,0,0,1-.08.11.22.22,0,0,1-.15.05h-.21Zm1.48-2.39h3.19l-1.59-4.1Z"/><path class="cls-1" d="M137,29.17a3.19,3.19,0,0,1-.73-2.06V25.27a3.19,3.19,0,0,1,.73-2.06,2.57,2.57,0,0,1,2-.77,3.17,3.17,0,0,1,1.54.34,2.29,2.29,0,0,1,.91.85,2.39,2.39,0,0,1,.33,1.06h0a.17.17,0,0,1-.06.13.24.24,0,0,1-.15.05h-.23c-.13,0-.2-.07-.23-.22a2,2,0,0,0-.72-1.25A2.41,2.41,0,0,0,139,23a2,2,0,0,0-1.52.55,2.48,2.48,0,0,0-.58,1.69V27a2.48,2.48,0,0,0,.58,1.69,2,2,0,0,0,1.52.55,2.41,2.41,0,0,0,1.41-.36,2,2,0,0,0,.72-1.25.21.21,0,0,1,.23-.22h.21a.24.24,0,0,1,.16.06.16.16,0,0,1,.06.15,2.39,2.39,0,0,1-.33,1.06,2.29,2.29,0,0,1-.91.85,3.17,3.17,0,0,1-1.54.34A2.57,2.57,0,0,1,137,29.17Z"/><path class="cls-1" d="M143.83,29.17a3.19,3.19,0,0,1-.73-2.06V25.27a3.19,3.19,0,0,1,.73-2.06,2.57,2.57,0,0,1,2-.77,3.17,3.17,0,0,1,1.54.34,2.29,2.29,0,0,1,.91.85,2.39,2.39,0,0,1,.33,1.06h0a.17.17,0,0,1-.06.13.24.24,0,0,1-.15.05h-.21c-.13,0-.2-.07-.23-.22a2,2,0,0,0-.72-1.25,2.41,2.41,0,0,0-1.41-.36,2,2,0,0,0-1.52.55,2.48,2.48,0,0,0-.58,1.69V27a2.48,2.48,0,0,0,.58,1.69,2,2,0,0,0,1.52.55,2.41,2.41,0,0,0,1.41-.36,2,2,0,0,0,.72-1.25.21.21,0,0,1,.23-.22h.21a.24.24,0,0,1,.16.06.16.16,0,0,1,.06.15,2.39,2.39,0,0,1-.33,1.06,2.29,2.29,0,0,1-.9.87,3.17,3.17,0,0,1-1.54.34A2.57,2.57,0,0,1,143.83,29.17Z"/><path class="cls-1" d="M149.5,29.77a.19.19,0,0,1-.06-.15v-.11l2.68-6.76a.3.3,0,0,1,.3-.21h.36a.3.3,0,0,1,.3.21l2.64,6.76v.11a.22.22,0,0,1-.21.21h-.21a.22.22,0,0,1-.15-.05.29.29,0,0,1-.08-.11L154.39,28h-3.68L150,29.67a.29.29,0,0,1-.08.11.22.22,0,0,1-.15.05h-.21A.19.19,0,0,1,149.5,29.77ZM151,27.38h3.15l-1.59-4.1Z"/></g></g></svg>