<svg width="79" height="86" viewBox="0 0 79 86" fill="none" xmlns="http://www.w3.org/2000/svg">
<path fill-rule="evenodd" clip-rule="evenodd" d="M73.825 7H32.425C31.4728 7 30.7 7.76939 30.7 8.71739C30.7 9.66539 31.4728 10.4348 32.425 10.4348H73.825C74.7772 10.4348 75.55 11.2076 75.55 12.1522V80.8478C75.55 81.7924 74.7772 82.5652 73.825 82.5652H15.175C14.2228 82.5652 13.45 81.7924 13.45 80.8478V49.9348C13.45 48.9868 12.6772 48.2174 11.725 48.2174C10.7728 48.2174 10 48.9868 10 49.9348V80.8478C10 83.6918 12.3149 86 15.175 86H73.825C76.6851 86 79 83.6918 79 80.8478V12.1522C79 9.30817 76.6851 7 73.825 7ZM9.545 34.3766C10.1332 33.9631 10.8166 33.7546 11.5 33.7546C12.1834 33.7546 12.8668 33.9631 13.455 34.3766L20 39V4.70859C20 3.76887 19.2384 3 18.3 3H4.7C3.7616 3 3 3.76887 3 4.70859V39L9.545 34.3766ZM12 38.0769L2.59543 44.7508C2.31429 44.9238 2.01257 45 1.71771 45C0.822857 45 0 44.28 0 43.2658V5.19231C0 2.32615 2.30057 0 5.14286 0H18.8571C21.6994 0 24 2.32615 24 5.19231V43.2658C24 44.28 23.1771 45 22.2823 45C21.9874 45 21.6857 44.9238 21.4046 44.7508L12 38.0769ZM55 73.5C55 74.328 55.784 75 56.75 75H67.25C68.216 75 69 74.328 69 73.5C69 72.672 68.216 72 67.25 72H56.75C55.784 72 55 72.672 55 73.5ZM28.7 55H59.3C60.2384 55 61 54.328 61 53.5C61 52.672 60.2384 52 59.3 52H28.7C27.7616 52 27 52.672 27 53.5C27 54.328 27.7616 55 28.7 55ZM35.6875 27H59.3125C60.244 27 61 26.328 61 25.5C61 24.672 60.244 24 59.3125 24H35.6875C34.756 24 34 24.672 34 25.5C34 26.328 34.756 27 35.6875 27ZM34 39.5C34 38.672 34.756 38 35.6875 38H59.3125C60.244 38 61 38.672 61 39.5C61 40.328 60.244 41 59.3125 41H35.6875C34.756 41 34 40.328 34 39.5Z" fill="#00B67B"/>
</svg>
