<svg width="102" height="86" viewBox="0 0 102 86" fill="none" xmlns="http://www.w3.org/2000/svg">
<mask id="mask0" mask-type="alpha" maskUnits="userSpaceOnUse" x="0" y="0" width="102" height="86">
<path fill-rule="evenodd" clip-rule="evenodd" d="M0 0H102V86H0V0Z" fill="white"/>
</mask>
<g mask="url(#mask0)">
<path fill-rule="evenodd" clip-rule="evenodd" d="M77 84C77 85.104 76.0868 86 74.9615 86H26.0385C24.9132 86 24 85.104 24 84C24 82.896 24.9132 82 26.0385 82H74.9615C76.0868 82 77 82.896 77 84ZM85 72C85 73.104 84.0908 74 82.9706 74H18.0294C16.9092 74 16 73.104 16 72C16 70.896 16.9092 70 18.0294 70H82.9706C84.0908 70 85 70.896 85 72ZM94 59C94 60.104 93.0827 61 91.9524 61H10.0476C8.91733 61 8 60.104 8 59C8 57.896 8.91733 57 10.0476 57H91.9524C93.0827 57 94 57.896 94 59ZM98 42.95C98 44.0775 97.0804 45 95.9565 45H6.04348C4.91957 45 4 44.0775 4 42.95V6.05C4 4.9225 4.91957 4 6.04348 4H95.9565C97.0804 4 98 4.9225 98 6.05V42.95ZM95.88 0H6.12C2.74176 0 0 2.744 0 6.125V42.875C0 46.256 2.74176 49 6.12 49H95.88C99.2582 49 102 46.256 102 42.875V6.125C102 2.744 99.2582 0 95.88 0Z" fill="#00B67B"/>
</g>
</svg>
