<?xml version="1.0" standalone="no"?>
<!DOCTYPE svg PUBLIC "-//W3C//DTD SVG 20010904//EN"
 "http://www.w3.org/TR/2001/REC-SVG-20010904/DTD/svg10.dtd">
<svg version="1.0" xmlns="http://www.w3.org/2000/svg"
 width="3013.000000pt" height="3013.000000pt" viewBox="0 0 3013.000000 3013.000000"
 preserveAspectRatio="xMidYMid meet">
<metadata>
Created by potrace 1.11, written by Peter Selinger 2001-2013
</metadata>
<g transform="translate(0.000000,3013.000000) scale(0.100000,-0.100000)"
fill="#000000" stroke="none">
<path d="M70 15020 l0 -15000 14995 0 14995 0 0 15000 0 15000 -14995 0
-14995 0 0 -15000z m16250 -5 l0 -7955 -1380 0 -1380 0 0 7955 0 7955 1380 0
1380 0 0 -7955z m3741 -4375 c342 -35 665 -164 934 -374 108 -85 275 -261 357
-376 129 -181 249 -459 292 -675 159 -803 -237 -1606 -968 -1964 -180 -89
-381 -147 -591 -172 -123 -15 -388 -6 -508 16 -667 122 -1206 602 -1401 1249
-58 191 -71 285 -70 521 0 188 3 223 27 336 52 246 139 456 272 654 365 545
1008 850 1656 785z"/>
</g>
</svg>
